<svg width="133" height="27" viewBox="0 0 133 27" fill="none" xmlns="http://www.w3.org/2000/svg">
<rect x="0.5" y="0.5" width="132" height="26" stroke="white"/>
<path d="M7.05748 17L10.4345 9.245H11.0505L14.4825 17H13.7675L12.7995 14.767L13.1185 14.932H8.34448L8.71848 14.767L7.77248 17H7.05748ZM10.7315 10.07L8.85048 14.481L8.59748 14.349H12.8655L12.6785 14.481L10.7535 10.07H10.7315ZM15.6764 17V12.776C15.6764 12.5633 15.6691 12.3507 15.6544 12.138C15.6471 11.918 15.6287 11.7017 15.5994 11.489H16.2594L16.3474 12.754L16.2154 12.765C16.2887 12.457 16.4207 12.204 16.6114 12.006C16.8021 11.8007 17.0221 11.6467 17.2714 11.544C17.5207 11.4413 17.7774 11.39 18.0414 11.39C18.1367 11.39 18.2247 11.3973 18.3054 11.412C18.3934 11.4193 18.4741 11.434 18.5474 11.456L18.5254 12.061C18.4374 12.0317 18.3494 12.0133 18.2614 12.006C18.1734 11.9987 18.0781 11.995 17.9754 11.995C17.6454 11.995 17.3557 12.0757 17.1064 12.237C16.8644 12.3983 16.6774 12.6037 16.5454 12.853C16.4134 13.1023 16.3474 13.3553 16.3474 13.612V17H15.6764ZM21.5944 17.088C21.1031 17.088 20.7254 16.9413 20.4614 16.648C20.2047 16.3547 20.0764 15.9037 20.0764 15.295V12.028H18.9764V11.489H20.0764V9.949L20.7474 9.729V11.489H22.3754V12.028H20.7474V15.196C20.7474 15.658 20.8207 15.9917 20.9674 16.197C21.1141 16.4023 21.3487 16.505 21.6714 16.505C21.8181 16.505 21.9464 16.4903 22.0564 16.461C22.1737 16.4317 22.2727 16.3987 22.3534 16.362V16.956C22.2654 16.9927 22.1517 17.022 22.0124 17.044C21.8731 17.0733 21.7337 17.088 21.5944 17.088ZM23.5185 17V11.489H24.1895V17H23.5185ZM23.4085 10.136V9.3H24.3105V10.136H23.4085ZM28.2434 17.088C27.7227 17.088 27.2681 16.9743 26.8794 16.747C26.4907 16.5123 26.1901 16.1787 25.9774 15.746C25.7721 15.3133 25.6694 14.8 25.6694 14.206C25.6694 13.612 25.7757 13.106 25.9884 12.688C26.2011 12.2627 26.4981 11.94 26.8794 11.72C27.2681 11.5 27.7227 11.39 28.2434 11.39C28.5954 11.39 28.9327 11.456 29.2554 11.588C29.5854 11.72 29.8567 11.9033 30.0694 12.138L29.7944 12.633C29.5671 12.4057 29.3214 12.2407 29.0574 12.138C28.7934 12.028 28.5294 11.973 28.2654 11.973C27.6641 11.973 27.1947 12.1637 26.8574 12.545C26.5201 12.9263 26.3514 13.4837 26.3514 14.217C26.3514 14.9503 26.5201 15.5187 26.8574 15.922C27.1947 16.318 27.6641 16.516 28.2654 16.516C28.5147 16.516 28.7714 16.4647 29.0354 16.362C29.3067 16.2593 29.5597 16.0907 29.7944 15.856L30.0694 16.351C29.8494 16.5857 29.5707 16.769 29.2334 16.901C28.9034 17.0257 28.5734 17.088 28.2434 17.088ZM31.4247 17V8.904H32.0957V17H31.4247ZM36.2926 17.088C35.4566 17.088 34.793 16.8387 34.3016 16.34C33.8176 15.8413 33.5756 15.1483 33.5756 14.261C33.5756 13.6743 33.682 13.1683 33.8946 12.743C34.1146 12.3177 34.419 11.9877 34.8076 11.753C35.1963 11.511 35.6473 11.39 36.1606 11.39C36.652 11.39 37.0663 11.4963 37.4036 11.709C37.741 11.9143 38.0013 12.2113 38.1846 12.6C38.368 12.9813 38.4596 13.436 38.4596 13.964V14.272H34.0596V13.788H38.0416L37.8546 13.931C37.8546 13.3077 37.7116 12.82 37.4256 12.468C37.1396 12.1087 36.7143 11.929 36.1496 11.929C35.5483 11.929 35.079 12.138 34.7416 12.556C34.4043 12.9667 34.2356 13.513 34.2356 14.195V14.272C34.2356 15.0053 34.4153 15.5627 34.7746 15.944C35.1413 16.3253 35.651 16.516 36.3036 16.516C36.641 16.516 36.9563 16.4647 37.2496 16.362C37.543 16.2593 37.8253 16.0833 38.0966 15.834L38.3716 16.329C38.137 16.571 37.8326 16.758 37.4586 16.89C37.0846 17.022 36.696 17.088 36.2926 17.088ZM44.486 17.088C44.0607 17.088 43.661 17.0257 43.287 16.901C42.9203 16.7763 42.616 16.604 42.374 16.384L42.638 15.889C42.9093 16.109 43.2027 16.274 43.518 16.384C43.8333 16.4867 44.1633 16.538 44.508 16.538C44.9773 16.538 45.333 16.45 45.575 16.274C45.817 16.098 45.938 15.8597 45.938 15.559C45.938 15.3243 45.861 15.1337 45.707 14.987C45.553 14.8403 45.2963 14.7303 44.937 14.657L43.947 14.448C43.4777 14.338 43.1257 14.162 42.891 13.92C42.6637 13.678 42.55 13.3737 42.55 13.007C42.55 12.6917 42.6307 12.413 42.792 12.171C42.9607 11.929 43.199 11.7383 43.507 11.599C43.815 11.4597 44.178 11.39 44.596 11.39C44.992 11.39 45.355 11.456 45.685 11.588C46.0223 11.7127 46.2973 11.8923 46.51 12.127L46.224 12.611C46.004 12.391 45.7547 12.226 45.476 12.116C45.2047 12.006 44.915 11.951 44.607 11.951C44.1523 11.951 43.8077 12.0463 43.573 12.237C43.3383 12.4203 43.221 12.666 43.221 12.974C43.221 13.2087 43.2943 13.403 43.441 13.557C43.5877 13.7037 43.8187 13.8137 44.134 13.887L45.124 14.107C45.6227 14.217 45.993 14.3857 46.235 14.613C46.477 14.8403 46.598 15.141 46.598 15.515C46.598 15.8377 46.51 16.12 46.334 16.362C46.158 16.5967 45.9123 16.7763 45.597 16.901C45.2817 17.0257 44.9113 17.088 44.486 17.088ZM50.0756 17.088C49.4302 17.088 48.9389 16.9157 48.6016 16.571C48.2716 16.219 48.1066 15.68 48.1066 14.954V11.489H48.7776V14.91C48.7776 15.4673 48.8912 15.8743 49.1186 16.131C49.3459 16.3877 49.6942 16.516 50.1636 16.516C50.6842 16.516 51.1022 16.3473 51.4176 16.01C51.7402 15.6653 51.9016 15.2107 51.9016 14.646V11.489H52.5726V17H51.9126V15.702H52.0556C51.9016 16.1493 51.6486 16.494 51.2966 16.736C50.9519 16.9707 50.5449 17.088 50.0756 17.088ZM54.4023 17V11.489H55.0733V17H54.4023ZM54.2923 10.136V9.3H55.1943V10.136H54.2923ZM58.5332 17L56.1902 11.489H56.9382L59.0282 16.582H58.7422L60.8542 11.489H61.5692L59.2262 17H58.5332ZM64.6671 17.088C64.1684 17.088 63.7357 16.9743 63.3691 16.747C63.0024 16.5197 62.7201 16.1933 62.5221 15.768C62.3241 15.3427 62.2251 14.833 62.2251 14.239C62.2251 13.645 62.3241 13.139 62.5221 12.721C62.7274 12.2957 63.0134 11.9693 63.3801 11.742C63.7467 11.5073 64.1757 11.39 64.6671 11.39C65.1731 11.39 65.6094 11.522 65.9761 11.786C66.3501 12.05 66.5957 12.4093 66.7131 12.864H66.5811L66.6911 11.489H67.3401C67.3181 11.7017 67.2961 11.9107 67.2741 12.116C67.2594 12.3213 67.2521 12.523 67.2521 12.721V17H66.5811V15.625H66.7021C66.5847 16.0797 66.3391 16.439 65.9651 16.703C65.5984 16.9597 65.1657 17.088 64.6671 17.088ZM64.7551 16.516C65.3197 16.516 65.7671 16.3217 66.0971 15.933C66.4271 15.5443 66.5921 14.9797 66.5921 14.239C66.5921 13.4983 66.4271 12.9337 66.0971 12.545C65.7671 12.1563 65.3197 11.962 64.7551 11.962C64.1904 11.962 63.7394 12.1563 63.4021 12.545C63.0721 12.9337 62.9071 13.4983 62.9071 14.239C62.9071 14.9797 63.0721 15.5443 63.4021 15.933C63.7394 16.3217 64.1904 16.516 64.7551 16.516ZM69.0761 17V12.721C69.0761 12.523 69.0688 12.3213 69.0541 12.116C69.0394 11.9107 69.0174 11.7017 68.9881 11.489H69.6481L69.7471 12.754H69.6151C69.7764 12.314 70.0368 11.9767 70.3961 11.742C70.7554 11.5073 71.1734 11.39 71.6501 11.39C72.3028 11.39 72.7941 11.5623 73.1241 11.907C73.4614 12.2517 73.6301 12.7907 73.6301 13.524V17H72.9591V13.579C72.9591 13.0143 72.8454 12.6073 72.6181 12.358C72.3908 12.1013 72.0388 11.973 71.5621 11.973C71.0048 11.973 70.5611 12.1417 70.2311 12.479C69.9084 12.8163 69.7471 13.271 69.7471 13.843V17H69.0761ZM77.2175 17.088C76.7261 17.088 76.3485 16.9413 76.0845 16.648C75.8278 16.3547 75.6995 15.9037 75.6995 15.295V12.028H74.5995V11.489H75.6995V9.949L76.3705 9.729V11.489H77.9985V12.028H76.3705V15.196C76.3705 15.658 76.4438 15.9917 76.5905 16.197C76.7371 16.4023 76.9718 16.505 77.2945 16.505C77.4411 16.505 77.5695 16.4903 77.6795 16.461C77.7968 16.4317 77.8958 16.3987 77.9765 16.362V16.956C77.8885 16.9927 77.7748 17.022 77.6355 17.044C77.4961 17.0733 77.3568 17.088 77.2175 17.088Z" fill="white"/>
<path d="M115.354 14.3536C115.549 14.1583 115.549 13.8417 115.354 13.6465L112.172 10.4645C111.976 10.2692 111.66 10.2692 111.465 10.4645C111.269 10.6597 111.269 10.9763 111.465 11.1716L114.293 14L111.465 16.8284C111.269 17.0237 111.269 17.3403 111.465 17.5355C111.66 17.7308 111.976 17.7308 112.172 17.5355L115.354 14.3536ZM92 14.5H115V13.5H92V14.5Z" fill="white"/>
</svg>
