<svg width="109" height="37" viewBox="0 0 109 37" fill="none" xmlns="http://www.w3.org/2000/svg">
<rect width="109" height="37" rx="6" fill="#034662"/>
<g clip-path="url(#clip0_1758_848)">
<path d="M98.2962 18.3536C98.4914 18.1583 98.4914 17.8417 98.2962 17.6465L95.1142 14.4645C94.9189 14.2692 94.6023 14.2692 94.4071 14.4645C94.2118 14.6597 94.2118 14.9763 94.4071 15.1716L97.2355 18L94.4071 20.8284C94.2118 21.0237 94.2118 21.3403 94.4071 21.5355C94.6023 21.7308 94.9189 21.7308 95.1142 21.5355L98.2962 18.3536ZM74.9426 18.5H97.9426V17.5H74.9426V18.5Z" fill="#EAEAEA"/>
</g>
<path d="M13.9951 24V14.13H15.1571V22.992H20.1411V24H13.9951ZM21.498 24V16.972H22.632V24H21.498ZM21.358 15.376V14.102H22.758V15.376H21.358ZM24.8059 24V18.666C24.8059 18.386 24.7966 18.1013 24.7779 17.812C24.7686 17.5227 24.7499 17.2427 24.7219 16.972H25.8139L25.9539 18.68L25.7579 18.694C25.8512 18.274 26.0146 17.9287 26.2479 17.658C26.4812 17.3873 26.7566 17.1867 27.0739 17.056C27.3912 16.916 27.7226 16.846 28.0679 16.846C28.2079 16.846 28.3292 16.8507 28.4319 16.86C28.5439 16.8693 28.6466 16.8927 28.7399 16.93L28.7259 17.938C28.5859 17.8913 28.4552 17.8633 28.3339 17.854C28.2219 17.8353 28.0912 17.826 27.9419 17.826C27.5312 17.826 27.1719 17.924 26.8639 18.12C26.5652 18.316 26.3366 18.568 26.1779 18.876C26.0286 19.184 25.9539 19.5107 25.9539 19.856V24H24.8059ZM32.9598 24.126C31.8585 24.126 30.9905 23.8087 30.3558 23.174C29.7211 22.53 29.4038 21.6387 29.4038 20.5C29.4038 19.7627 29.5438 19.1233 29.8238 18.582C30.1038 18.0313 30.4958 17.6067 30.9998 17.308C31.5038 17 32.0825 16.846 32.7358 16.846C33.3798 16.846 33.9211 16.9813 34.3598 17.252C34.7985 17.5227 35.1345 17.91 35.3678 18.414C35.6011 18.9087 35.7178 19.4967 35.7178 20.178V20.598H30.2718V19.884H34.9758L34.7378 20.066C34.7378 19.3193 34.5698 18.736 34.2338 18.316C33.8978 17.896 33.3985 17.686 32.7358 17.686C32.0358 17.686 31.4898 17.9333 31.0978 18.428C30.7058 18.9133 30.5098 19.5713 30.5098 20.402V20.528C30.5098 21.4053 30.7245 22.0727 31.1538 22.53C31.5925 22.978 32.2038 23.202 32.9878 23.202C33.4078 23.202 33.7998 23.1413 34.1638 23.02C34.5371 22.8893 34.8918 22.6793 35.2278 22.39L35.6198 23.188C35.3118 23.4867 34.9198 23.72 34.4438 23.888C33.9771 24.0467 33.4825 24.126 32.9598 24.126ZM41.1034 27.024V18.596C41.1034 18.3347 41.0894 18.0687 41.0614 17.798C41.0428 17.518 41.0194 17.2427 40.9914 16.972H42.0834L42.2374 18.638H42.0694C42.2188 18.0873 42.5221 17.6533 42.9794 17.336C43.4368 17.0093 43.9828 16.846 44.6174 16.846C45.2521 16.846 45.7981 16.9907 46.2554 17.28C46.7221 17.5693 47.0861 17.9847 47.3474 18.526C47.6088 19.0673 47.7394 19.7207 47.7394 20.486C47.7394 21.242 47.6088 21.8907 47.3474 22.432C47.0954 22.9733 46.7361 23.3933 46.2694 23.692C45.8028 23.9813 45.2521 24.126 44.6174 24.126C43.9921 24.126 43.4508 23.9673 42.9934 23.65C42.5361 23.3327 42.2328 22.8987 42.0834 22.348H42.2374V27.024H41.1034ZM44.3934 23.202C45.0654 23.202 45.5974 22.9733 45.9894 22.516C46.3908 22.0493 46.5914 21.3727 46.5914 20.486C46.5914 19.59 46.3908 18.9133 45.9894 18.456C45.5974 17.9893 45.0654 17.756 44.3934 17.756C43.7308 17.756 43.1988 17.9893 42.7974 18.456C42.4054 18.9133 42.2094 19.59 42.2094 20.486C42.2094 21.3727 42.4054 22.0493 42.7974 22.516C43.1988 22.9733 43.7308 23.202 44.3934 23.202ZM49.498 24V13.696H50.632V24H49.498ZM55.3119 24.126C54.4812 24.126 53.8512 23.8973 53.4219 23.44C53.0019 22.9827 52.7919 22.2827 52.7919 21.34V16.972H53.9259V21.312C53.9259 21.956 54.0566 22.432 54.3179 22.74C54.5792 23.0387 54.9852 23.188 55.5359 23.188C56.1519 23.188 56.6466 22.9873 57.0199 22.586C57.3932 22.1847 57.5799 21.648 57.5799 20.976V16.972H58.7139V24H57.6079V22.418H57.7899C57.5939 22.9593 57.2766 23.3793 56.8379 23.678C56.4086 23.9767 55.8999 24.126 55.3119 24.126ZM63.252 24.126C62.692 24.126 62.1693 24.0513 61.684 23.902C61.1986 23.7433 60.7973 23.524 60.48 23.244L60.872 22.446C61.2173 22.7167 61.5906 22.9173 61.992 23.048C62.4026 23.1787 62.8273 23.244 63.266 23.244C63.826 23.244 64.246 23.146 64.526 22.95C64.8153 22.7447 64.96 22.4647 64.96 22.11C64.96 21.8393 64.8666 21.6247 64.68 21.466C64.5026 21.298 64.2086 21.1673 63.798 21.074L62.496 20.808C61.8986 20.6773 61.4506 20.458 61.152 20.15C60.8533 19.8327 60.704 19.4313 60.704 18.946C60.704 18.5353 60.8113 18.176 61.026 17.868C61.2406 17.5507 61.5533 17.3033 61.964 17.126C62.3746 16.9393 62.8553 16.846 63.406 16.846C63.9193 16.846 64.3906 16.9253 64.82 17.084C65.2586 17.2333 65.6226 17.4527 65.912 17.742L65.506 18.526C65.226 18.2553 64.904 18.0547 64.54 17.924C64.1853 17.784 63.8166 17.714 63.434 17.714C62.8833 17.714 62.468 17.826 62.188 18.05C61.9173 18.2647 61.782 18.5493 61.782 18.904C61.782 19.1747 61.866 19.3987 62.034 19.576C62.2113 19.744 62.482 19.87 62.846 19.954L64.148 20.22C64.7826 20.36 65.254 20.5793 65.562 20.878C65.8793 21.1673 66.038 21.5593 66.038 22.054C66.038 22.474 65.9213 22.8427 65.688 23.16C65.4546 23.468 65.128 23.706 64.708 23.874C64.2973 24.042 63.812 24.126 63.252 24.126Z" fill="#EAEAEA"/>
<defs>
<clipPath id="clip0_1758_848">
<rect width="21.4426" height="24" fill="white" transform="translate(75.9426 6)"/>
</clipPath>
</defs>
</svg>
