<svg width="122" height="37" viewBox="0 0 122 37" fill="none" xmlns="http://www.w3.org/2000/svg">
<rect width="122" height="37" rx="6" fill="#034662"/>
<path d="M108.354 18.3536C108.549 18.1583 108.549 17.8417 108.354 17.6465L105.172 14.4645C104.976 14.2692 104.66 14.2692 104.465 14.4645C104.269 14.6597 104.269 14.9763 104.465 15.1716L107.293 18L104.465 20.8284C104.269 21.0237 104.269 21.3403 104.465 21.5355C104.66 21.7308 104.976 21.7308 105.172 21.5355L108.354 18.3536ZM85 18.5H108V17.5H85V18.5Z" fill="white"/>
<path d="M32.4842 24.126C31.6909 24.126 30.9816 24.0233 30.3562 23.818C29.7309 23.6127 29.1849 23.3187 28.7182 22.936L29.1382 22.012C29.4649 22.2547 29.7916 22.46 30.1182 22.628C30.4542 22.7867 30.8136 22.908 31.1962 22.992C31.5789 23.0667 32.0082 23.104 32.4842 23.104C33.3149 23.104 33.9309 22.95 34.3322 22.642C34.7336 22.334 34.9342 21.9233 34.9342 21.41C34.9342 20.9713 34.7942 20.6353 34.5142 20.402C34.2342 20.1687 33.7442 19.982 33.0442 19.842L31.5742 19.548C30.6689 19.3613 29.9922 19.058 29.5442 18.638C29.1056 18.218 28.8862 17.6487 28.8862 16.93C28.8862 16.342 29.0356 15.8287 29.3342 15.39C29.6422 14.9513 30.0716 14.6107 30.6222 14.368C31.1729 14.1253 31.8122 14.004 32.5402 14.004C33.2402 14.004 33.8796 14.1113 34.4582 14.326C35.0369 14.5313 35.5316 14.8347 35.9422 15.236L35.5362 16.132C35.0976 15.74 34.6356 15.46 34.1502 15.292C33.6742 15.1147 33.1329 15.026 32.5262 15.026C31.7609 15.026 31.1542 15.194 30.7062 15.53C30.2676 15.8567 30.0482 16.3047 30.0482 16.874C30.0482 17.3313 30.1882 17.6907 30.4682 17.952C30.7482 18.204 31.2102 18.3953 31.8542 18.526L33.3382 18.82C34.2902 19.016 34.9902 19.31 35.4382 19.702C35.8862 20.094 36.1102 20.6447 36.1102 21.354C36.1102 21.8953 35.9609 22.376 35.6622 22.796C35.3729 23.216 34.9576 23.5427 34.4162 23.776C33.8749 24.0093 33.2309 24.126 32.4842 24.126ZM40.9829 24.126C39.8815 24.126 39.0135 23.8087 38.3789 23.174C37.7442 22.53 37.4269 21.6387 37.4269 20.5C37.4269 19.7627 37.5669 19.1233 37.8469 18.582C38.1269 18.0313 38.5189 17.6067 39.0229 17.308C39.5269 17 40.1055 16.846 40.7589 16.846C41.4029 16.846 41.9442 16.9813 42.3829 17.252C42.8215 17.5227 43.1575 17.91 43.3909 18.414C43.6242 18.9087 43.7409 19.4967 43.7409 20.178V20.598H38.2949V19.884H42.9989L42.7609 20.066C42.7609 19.3193 42.5929 18.736 42.2569 18.316C41.9209 17.896 41.4215 17.686 40.7589 17.686C40.0589 17.686 39.5129 17.9333 39.1209 18.428C38.7289 18.9133 38.5329 19.5713 38.5329 20.402V20.528C38.5329 21.4053 38.7475 22.0727 39.1769 22.53C39.6155 22.978 40.2269 23.202 41.0109 23.202C41.4309 23.202 41.8229 23.1413 42.1869 23.02C42.5602 22.8893 42.9149 22.6793 43.2509 22.39L43.6429 23.188C43.3349 23.4867 42.9429 23.72 42.4669 23.888C42.0002 24.0467 41.5055 24.126 40.9829 24.126ZM45.4761 24V18.596C45.4761 18.3347 45.4621 18.0687 45.4341 17.798C45.4155 17.518 45.3921 17.2427 45.3641 16.972H46.4561L46.5961 18.512H46.4281C46.6335 17.9707 46.9601 17.56 47.4081 17.28C47.8655 16.9907 48.3928 16.846 48.9901 16.846C49.8208 16.846 50.4461 17.07 50.8661 17.518C51.2955 17.9567 51.5101 18.652 51.5101 19.604V24H50.3761V19.674C50.3761 19.0113 50.2408 18.5307 49.9701 18.232C49.7088 17.924 49.2981 17.77 48.7381 17.77C48.0848 17.77 47.5668 17.9707 47.1841 18.372C46.8015 18.7733 46.6101 19.31 46.6101 19.982V24H45.4761ZM56.3392 24.126C55.7232 24.126 55.1819 23.9813 54.7152 23.692C54.2486 23.3933 53.8846 22.9733 53.6232 22.432C53.3712 21.8907 53.2452 21.242 53.2452 20.486C53.2452 19.7207 53.3712 19.0673 53.6232 18.526C53.8846 17.9847 54.2486 17.5693 54.7152 17.28C55.1819 16.9907 55.7232 16.846 56.3392 16.846C56.9739 16.846 57.5199 17.0047 57.9772 17.322C58.4439 17.6393 58.7566 18.0687 58.9152 18.61H58.7472V13.696H59.8812V24H58.7612V22.32H58.9152C58.7659 22.88 58.4579 23.3233 57.9912 23.65C57.5246 23.9673 56.9739 24.126 56.3392 24.126ZM56.5772 23.202C57.2399 23.202 57.7719 22.9733 58.1732 22.516C58.5746 22.0493 58.7752 21.3727 58.7752 20.486C58.7752 19.59 58.5746 18.9133 58.1732 18.456C57.7719 17.9893 57.2399 17.756 56.5772 17.756C55.9146 17.756 55.3826 17.9893 54.9812 18.456C54.5892 18.9133 54.3932 19.59 54.3932 20.486C54.3932 21.3727 54.5892 22.0493 54.9812 22.516C55.3826 22.9733 55.9146 23.202 56.5772 23.202Z" fill="white"/>
</svg>
