<svg width="122" height="37" viewBox="0 0 122 37" fill="none" xmlns="http://www.w3.org/2000/svg">
<rect width="122" height="37" rx="6" fill="#F5E23A"/>
<path d="M21.9781 22V14.245H26.7961V14.828H22.6381V17.776H26.5541V18.359H22.6381V21.417H26.7961V22H21.9781ZM28.3026 22V17.721C28.3026 17.523 28.2953 17.3213 28.2806 17.116C28.266 16.9107 28.244 16.7017 28.2146 16.489H28.8746L28.9736 17.754H28.8416C29.003 17.314 29.2633 16.9767 29.6226 16.742C29.982 16.5073 30.4 16.39 30.8766 16.39C31.5293 16.39 32.0206 16.5623 32.3506 16.907C32.688 17.2517 32.8566 17.7907 32.8566 18.524V22H32.1856V18.579C32.1856 18.0143 32.072 17.6073 31.8446 17.358C31.6173 17.1013 31.2653 16.973 30.7886 16.973C30.2313 16.973 29.7876 17.1417 29.4576 17.479C29.135 17.8163 28.9736 18.271 28.9736 18.843V22H28.3026ZM36.2363 22L33.8933 16.489H34.6413L36.7313 21.582H36.4453L38.5573 16.489H39.2723L36.9293 22H36.2363ZM42.5012 22.088C41.9805 22.088 41.5295 21.9743 41.1482 21.747C40.7742 21.5197 40.4845 21.1933 40.2792 20.768C40.0738 20.3427 39.9712 19.833 39.9712 19.239C39.9712 18.6523 40.0738 18.1463 40.2792 17.721C40.4845 17.2957 40.7742 16.9693 41.1482 16.742C41.5295 16.5073 41.9805 16.39 42.5012 16.39C43.0145 16.39 43.4582 16.5073 43.8322 16.742C44.2135 16.9693 44.5068 17.2957 44.7122 17.721C44.9248 18.1463 45.0312 18.6523 45.0312 19.239C45.0312 19.833 44.9248 20.3427 44.7122 20.768C44.5068 21.1933 44.2135 21.5197 43.8322 21.747C43.4582 21.9743 43.0145 22.088 42.5012 22.088ZM42.5012 21.516C43.0585 21.516 43.5058 21.3217 43.8432 20.933C44.1805 20.5443 44.3492 19.9797 44.3492 19.239C44.3492 18.4983 44.1805 17.9337 43.8432 17.545C43.5058 17.1563 43.0585 16.962 42.5012 16.962C41.9365 16.962 41.4855 17.1563 41.1482 17.545C40.8182 17.9337 40.6532 18.4983 40.6532 19.239C40.6532 19.9797 40.8182 20.5443 41.1482 20.933C41.4855 21.3217 41.9365 21.516 42.5012 21.516ZM46.1825 24.497L46.0175 23.914C46.3621 23.8333 46.6481 23.7343 46.8755 23.617C47.1028 23.507 47.2935 23.3603 47.4475 23.177C47.6015 22.9937 47.7371 22.7663 47.8545 22.495L48.1405 21.835L48.1295 22.132L45.7205 16.489H46.4685L48.5695 21.582H48.2945L50.3735 16.489H51.0995L48.5475 22.528C48.4081 22.8653 48.2541 23.144 48.0855 23.364C47.9241 23.5913 47.7481 23.7783 47.5575 23.925C47.3668 24.079 47.1578 24.2 46.9305 24.288C46.7031 24.376 46.4538 24.4457 46.1825 24.497ZM54.5153 22.088C53.6793 22.088 53.0156 21.8387 52.5243 21.34C52.0403 20.8413 51.7983 20.1483 51.7983 19.261C51.7983 18.6743 51.9046 18.1683 52.1173 17.743C52.3373 17.3177 52.6416 16.9877 53.0303 16.753C53.419 16.511 53.87 16.39 54.3833 16.39C54.8746 16.39 55.289 16.4963 55.6263 16.709C55.9636 16.9143 56.224 17.2113 56.4073 17.6C56.5906 17.9813 56.6823 18.436 56.6823 18.964V19.272H52.2823V18.788H56.2643L56.0773 18.931C56.0773 18.3077 55.9343 17.82 55.6483 17.468C55.3623 17.1087 54.937 16.929 54.3723 16.929C53.771 16.929 53.3016 17.138 52.9643 17.556C52.627 17.9667 52.4583 18.513 52.4583 19.195V19.272C52.4583 20.0053 52.638 20.5627 52.9973 20.944C53.364 21.3253 53.8736 21.516 54.5263 21.516C54.8636 21.516 55.179 21.4647 55.4723 21.362C55.7656 21.2593 56.048 21.0833 56.3193 20.834L56.5943 21.329C56.3596 21.571 56.0553 21.758 55.6813 21.89C55.3073 22.022 54.9186 22.088 54.5153 22.088ZM58.112 22V17.776C58.112 17.5633 58.1046 17.3507 58.09 17.138C58.0826 16.918 58.0643 16.7017 58.035 16.489H58.695L58.783 17.754L58.651 17.765C58.7243 17.457 58.8563 17.204 59.047 17.006C59.2376 16.8007 59.4576 16.6467 59.707 16.544C59.9563 16.4413 60.213 16.39 60.477 16.39C60.5723 16.39 60.6603 16.3973 60.741 16.412C60.829 16.4193 60.9096 16.434 60.983 16.456L60.961 17.061C60.873 17.0317 60.785 17.0133 60.697 17.006C60.609 16.9987 60.5136 16.995 60.411 16.995C60.081 16.995 59.7913 17.0757 59.542 17.237C59.3 17.3983 59.113 17.6037 58.981 17.853C58.849 18.1023 58.783 18.3553 58.783 18.612V22H58.112Z" fill="#070707"/>
<path d="M103.354 19.3536C103.549 19.1583 103.549 18.8417 103.354 18.6465L100.172 15.4645C99.9763 15.2692 99.6597 15.2692 99.4645 15.4645C99.2692 15.6597 99.2692 15.9763 99.4645 16.1716L102.293 19L99.4645 21.8284C99.2692 22.0237 99.2692 22.3403 99.4645 22.5355C99.6597 22.7308 99.9763 22.7308 100.172 22.5355L103.354 19.3536ZM80 19.5H103V18.5H80V19.5Z" fill="#070707"/>
</svg>
