<svg width="105" height="24" viewBox="0 0 105 24" fill="none" xmlns="http://www.w3.org/2000/svg">
<rect x="0.5" y="2.5" width="104" height="19" rx="2.5" fill="#FF0000" fill-opacity="0.3" stroke="#FF0000"/>
<path d="M21.3068 16V8.245H23.3418V11.237H26.4658V8.245H28.5008V16H26.4658V12.898H23.3418V16H21.3068ZM29.7238 12.117C29.7238 11.3103 29.8814 10.61 30.1968 10.016C30.5121 9.41467 30.9631 8.949 31.5498 8.619C32.1364 8.289 32.8294 8.124 33.6288 8.124C34.4354 8.124 35.1321 8.289 35.7188 8.619C36.3054 8.949 36.7564 9.41467 37.0718 10.016C37.3944 10.61 37.5558 11.3103 37.5558 12.117C37.5558 12.9163 37.3944 13.6167 37.0718 14.218C36.7564 14.8193 36.3054 15.2887 35.7188 15.626C35.1321 15.956 34.4354 16.121 33.6288 16.121C32.8294 16.121 32.1364 15.956 31.5498 15.626C30.9704 15.2887 30.5194 14.8193 30.1968 14.218C29.8814 13.6167 29.7238 12.9163 29.7238 12.117ZM31.8468 12.117C31.8468 12.843 31.9934 13.4113 32.2868 13.822C32.5801 14.2253 33.0274 14.427 33.6288 14.427C34.2301 14.427 34.6811 14.2253 34.9818 13.822C35.2824 13.4113 35.4328 12.843 35.4328 12.117C35.4328 11.391 35.2824 10.8263 34.9818 10.423C34.6811 10.0197 34.2301 9.818 33.6288 9.818C33.0274 9.818 32.5801 10.0197 32.2868 10.423C31.9934 10.819 31.8468 11.3837 31.8468 12.117ZM38.8066 16V8.245H40.5666L43.1076 13.932H42.7446L45.2746 8.245H47.0456V16H45.2086V11.248H45.6816L43.4816 16H42.3376L40.1266 11.248H40.6326V16H38.8066ZM48.4953 16V8.245H54.0613V9.796H50.4423V11.281H53.7973V12.843H50.4423V14.438H54.0613V16H48.4953Z" fill="white"/>
<path d="M93.3536 12.3535C93.5488 12.1583 93.5488 11.8417 93.3536 11.6464L90.1716 8.46444C89.9763 8.26918 89.6597 8.26918 89.4645 8.46444C89.2692 8.6597 89.2692 8.97628 89.4645 9.17154L92.2929 12L89.4645 14.8284C89.2692 15.0237 89.2692 15.3402 89.4645 15.5355C89.6597 15.7308 89.9763 15.7308 90.1716 15.5355L93.3536 12.3535ZM70 12.5H93V11.5H70V12.5Z" fill="white"/>
</svg>
