<svg width="105" height="24" viewBox="0 0 105 24" fill="none" xmlns="http://www.w3.org/2000/svg">
<rect x="0.5" y="2.5" width="104" height="19" rx="2.5" fill="#FF0000" fill-opacity="0.3" stroke="#FF0000"/>
<path d="M11.945 16V8.245H15.069C15.9856 8.245 16.7593 8.40267 17.39 8.718C18.0206 9.026 18.4973 9.46967 18.82 10.049C19.15 10.621 19.315 11.3103 19.315 12.117C19.315 12.9163 19.15 13.6057 18.82 14.185C18.4973 14.7643 18.0206 15.2117 17.39 15.527C16.7593 15.8423 15.9856 16 15.069 16H11.945ZM13.98 14.35H14.937C15.7363 14.35 16.3266 14.1667 16.708 13.8C17.0966 13.4333 17.291 12.8723 17.291 12.117C17.291 11.3543 17.0966 10.7933 16.708 10.434C16.3266 10.0673 15.7363 9.884 14.937 9.884H13.98V14.35ZM23.3767 16.121C22.3647 16.121 21.5764 15.8607 21.0117 15.34C20.4544 14.8193 20.1757 14.1043 20.1757 13.195C20.1757 12.6303 20.2931 12.128 20.5277 11.688C20.7624 11.248 21.0924 10.907 21.5177 10.665C21.9431 10.4157 22.4417 10.291 23.0137 10.291C23.5784 10.291 24.0477 10.4157 24.4217 10.665C24.8031 10.907 25.0891 11.2443 25.2797 11.677C25.4704 12.1023 25.5657 12.5973 25.5657 13.162V13.58H21.8147V12.656H24.1247L23.9377 12.81C23.9377 12.392 23.8571 12.084 23.6957 11.886C23.5417 11.6807 23.3217 11.578 23.0357 11.578C22.7057 11.578 22.4527 11.7027 22.2767 11.952C22.1081 12.194 22.0237 12.5607 22.0237 13.052V13.25C22.0237 13.7413 22.1447 14.1007 22.3867 14.328C22.6287 14.5553 22.9771 14.669 23.4317 14.669C23.7251 14.669 24.0001 14.636 24.2567 14.57C24.5207 14.504 24.7701 14.3977 25.0047 14.251L25.5107 15.527C25.2321 15.7177 24.9094 15.8643 24.5427 15.967C24.1761 16.0697 23.7874 16.121 23.3767 16.121ZM22.3867 9.873L23.4977 7.618H25.3347L23.6407 9.873H22.3867ZM29.3251 16.121C28.7091 16.121 28.1701 16.0037 27.7081 15.769C27.2461 15.5343 26.8867 15.2007 26.6301 14.768C26.3734 14.328 26.2451 13.8037 26.2451 13.195C26.2451 12.5863 26.3734 12.0657 26.6301 11.633C26.8867 11.2003 27.2461 10.8703 27.7081 10.643C28.1701 10.4083 28.7091 10.291 29.3251 10.291C29.7064 10.291 30.0804 10.3423 30.4471 10.445C30.8137 10.5477 31.1107 10.6943 31.3381 10.885L30.7881 12.216C30.6121 12.0693 30.4104 11.9593 30.1831 11.886C29.9631 11.8053 29.7467 11.765 29.5341 11.765C29.1307 11.765 28.8154 11.886 28.5881 12.128C28.3681 12.37 28.2581 12.7257 28.2581 13.195C28.2581 13.6643 28.3681 14.0237 28.5881 14.273C28.8154 14.515 29.1307 14.636 29.5341 14.636C29.7394 14.636 29.9557 14.5993 30.1831 14.526C30.4104 14.4453 30.6121 14.3353 30.7881 14.196L31.3381 15.527C31.1034 15.7103 30.8027 15.857 30.4361 15.967C30.0767 16.0697 29.7064 16.121 29.3251 16.121ZM34.835 16.121C34.2117 16.121 33.6727 16.0037 33.218 15.769C32.7634 15.5343 32.4114 15.2007 32.162 14.768C31.9127 14.328 31.788 13.8073 31.788 13.206C31.788 12.5973 31.9127 12.0767 32.162 11.644C32.4114 11.2113 32.7634 10.8777 33.218 10.643C33.6727 10.4083 34.2117 10.291 34.835 10.291C35.451 10.291 35.9864 10.4083 36.441 10.643C36.8957 10.8777 37.2477 11.215 37.497 11.655C37.7464 12.0877 37.871 12.6047 37.871 13.206C37.871 13.8 37.7464 14.317 37.497 14.757C37.2477 15.197 36.8957 15.5343 36.441 15.769C35.9864 16.0037 35.451 16.121 34.835 16.121ZM34.835 14.669C35.1577 14.669 35.4144 14.5553 35.605 14.328C35.7957 14.0933 35.891 13.7193 35.891 13.206C35.891 12.6927 35.7957 12.3223 35.605 12.095C35.4144 11.8603 35.1577 11.743 34.835 11.743C34.505 11.743 34.2447 11.8603 34.054 12.095C33.8634 12.3223 33.768 12.6927 33.768 13.206C33.768 13.7193 33.8634 14.0933 34.054 14.328C34.2447 14.5553 34.505 14.669 34.835 14.669ZM40.8871 16.121C40.1758 16.121 39.6478 15.9267 39.3031 15.538C38.9658 15.142 38.7971 14.5443 38.7971 13.745V10.412H40.7551V13.756C40.7551 14.0493 40.8138 14.2693 40.9311 14.416C41.0558 14.5553 41.2428 14.625 41.4921 14.625C41.7708 14.625 41.9981 14.526 42.1741 14.328C42.3574 14.1227 42.4491 13.855 42.4491 13.525V10.412H44.4071V16H42.5041V14.999H42.6691C42.4931 15.3583 42.2548 15.637 41.9541 15.835C41.6534 16.0257 41.2978 16.121 40.8871 16.121ZM47.2579 16L44.8269 10.412H46.8839L48.3249 14.13H47.9289L49.4359 10.412H51.3609L48.9079 16H47.2579ZM51.7744 16V11.941C51.7744 11.6843 51.7671 11.4277 51.7524 11.171C51.7378 10.9143 51.7158 10.6613 51.6864 10.412H53.5784L53.7874 12.128H53.4904C53.5638 11.71 53.6811 11.3653 53.8424 11.094C54.0038 10.8227 54.2054 10.621 54.4474 10.489C54.6894 10.357 54.9754 10.291 55.3054 10.291C55.4594 10.291 55.5731 10.2983 55.6464 10.313C55.7271 10.3203 55.8114 10.3423 55.8994 10.379V12.095C55.7161 12.0143 55.5694 11.963 55.4594 11.941C55.3494 11.919 55.2064 11.908 55.0304 11.908C54.7298 11.908 54.4841 11.963 54.2934 12.073C54.1028 12.1757 53.9634 12.337 53.8754 12.557C53.7948 12.777 53.7544 13.0593 53.7544 13.404V16H51.7744ZM56.4903 16V10.412H58.4483V16H56.4903ZM56.4463 9.62V7.86H58.5033V9.62H56.4463ZM59.6592 16V11.941C59.6592 11.6843 59.6519 11.4277 59.6372 11.171C59.6225 10.9143 59.6005 10.6613 59.5712 10.412H61.4632L61.6722 12.128H61.3752C61.4485 11.71 61.5659 11.3653 61.7272 11.094C61.8885 10.8227 62.0902 10.621 62.3322 10.489C62.5742 10.357 62.8602 10.291 63.1902 10.291C63.3442 10.291 63.4579 10.2983 63.5312 10.313C63.6119 10.3203 63.6962 10.3423 63.7842 10.379V12.095C63.6009 12.0143 63.4542 11.963 63.3442 11.941C63.2342 11.919 63.0912 11.908 62.9152 11.908C62.6145 11.908 62.3689 11.963 62.1782 12.073C61.9875 12.1757 61.8482 12.337 61.7602 12.557C61.6795 12.777 61.6392 13.0593 61.6392 13.404V16H59.6592Z" fill="white"/>
<path d="M93.3536 12.3535C93.5488 12.1583 93.5488 11.8417 93.3536 11.6464L90.1716 8.46444C89.9763 8.26918 89.6597 8.26918 89.4645 8.46444C89.2692 8.6597 89.2692 8.97628 89.4645 9.17154L92.2929 12L89.4645 14.8284C89.2692 15.0237 89.2692 15.3402 89.4645 15.5355C89.6597 15.7308 89.9763 15.7308 90.1716 15.5355L93.3536 12.3535ZM70 12.5H93V11.5H70V12.5Z" fill="white"/>
</svg>
