<svg width="122" height="37" viewBox="0 0 122 37" fill="none" xmlns="http://www.w3.org/2000/svg">
<rect width="122" height="37" rx="6" fill="#034662"/>
<path d="M108.354 18.3536C108.549 18.1583 108.549 17.8417 108.354 17.6465L105.172 14.4645C104.976 14.2692 104.66 14.2692 104.465 14.4645C104.269 14.6597 104.269 14.9763 104.465 15.1716L107.293 18L104.465 20.8284C104.269 21.0237 104.269 21.3403 104.465 21.5355C104.66 21.7308 104.976 21.7308 105.172 21.5355L108.354 18.3536ZM85 18.5H108V17.5H85V18.5Z" fill="white"/>
<path d="M14.7857 24V14.13H18.0617C19.1537 14.13 20.0777 14.3213 20.8337 14.704C21.5897 15.0773 22.1637 15.6327 22.5557 16.37C22.9477 17.098 23.1437 17.994 23.1437 19.058C23.1437 20.1127 22.9477 21.0087 22.5557 21.746C22.1637 22.4833 21.5897 23.0433 20.8337 23.426C20.0777 23.8087 19.1537 24 18.0617 24H14.7857ZM15.9477 23.006H17.9777C19.3217 23.006 20.3204 22.6793 20.9737 22.026C21.627 21.3633 21.9537 20.374 21.9537 19.058C21.9537 17.7327 21.627 16.7433 20.9737 16.09C20.3204 15.4367 19.3217 15.11 17.9777 15.11H15.9477V23.006ZM28.2407 24.126C27.1394 24.126 26.2714 23.8087 25.6367 23.174C25.002 22.53 24.6847 21.6387 24.6847 20.5C24.6847 19.7627 24.8247 19.1233 25.1047 18.582C25.3847 18.0313 25.7767 17.6067 26.2807 17.308C26.7847 17 27.3634 16.846 28.0167 16.846C28.6607 16.846 29.202 16.9813 29.6407 17.252C30.0794 17.5227 30.4154 17.91 30.6487 18.414C30.882 18.9087 30.9987 19.4967 30.9987 20.178V20.598H25.5527V19.884H30.2567L30.0187 20.066C30.0187 19.3193 29.8507 18.736 29.5147 18.316C29.1787 17.896 28.6794 17.686 28.0167 17.686C27.3167 17.686 26.7707 17.9333 26.3787 18.428C25.9867 18.9133 25.7907 19.5713 25.7907 20.402V20.528C25.7907 21.4053 26.0054 22.0727 26.4347 22.53C26.8734 22.978 27.4847 23.202 28.2687 23.202C28.6887 23.202 29.0807 23.1413 29.4447 23.02C29.818 22.8893 30.1727 22.6793 30.5087 22.39L30.9007 23.188C30.5927 23.4867 30.2007 23.72 29.7247 23.888C29.258 24.0467 28.7634 24.126 28.2407 24.126ZM27.6107 16.286L29.0527 13.458H30.2707L28.4227 16.286H27.6107ZM35.6879 24.126C34.9973 24.126 34.3953 23.9767 33.8819 23.678C33.3779 23.3793 32.9859 22.9547 32.7059 22.404C32.4353 21.8533 32.2999 21.2 32.2999 20.444C32.2999 19.6787 32.4399 19.03 32.7199 18.498C32.9999 17.9567 33.3919 17.546 33.8959 17.266C34.4093 16.986 35.0066 16.846 35.6879 16.846C36.1359 16.846 36.5699 16.9253 36.9899 17.084C37.4193 17.2427 37.7739 17.4667 38.0539 17.756L37.6479 18.568C37.3679 18.2973 37.0599 18.0967 36.7239 17.966C36.3973 17.8353 36.0753 17.77 35.7579 17.77C35.0299 17.77 34.4653 17.9987 34.0639 18.456C33.6626 18.9133 33.4619 19.5807 33.4619 20.458C33.4619 21.326 33.6626 21.998 34.0639 22.474C34.4653 22.95 35.0299 23.188 35.7579 23.188C36.0659 23.188 36.3833 23.1273 36.7099 23.006C37.0459 22.8847 37.3586 22.684 37.6479 22.404L38.0539 23.202C37.7646 23.5007 37.4053 23.7293 36.9759 23.888C36.5466 24.0467 36.1173 24.126 35.6879 24.126ZM42.4129 24.126C41.7409 24.126 41.1529 23.9813 40.6489 23.692C40.1542 23.3933 39.7715 22.9733 39.5009 22.432C39.2302 21.8813 39.0949 21.2327 39.0949 20.486C39.0949 19.73 39.2302 19.0813 39.5009 18.54C39.7715 17.9987 40.1542 17.5833 40.6489 17.294C41.1529 16.9953 41.7409 16.846 42.4129 16.846C43.0942 16.846 43.6822 16.9953 44.1769 17.294C44.6809 17.5833 45.0682 17.9987 45.3389 18.54C45.6189 19.0813 45.7589 19.73 45.7589 20.486C45.7589 21.2327 45.6189 21.8813 45.3389 22.432C45.0682 22.9733 44.6809 23.3933 44.1769 23.692C43.6822 23.9813 43.0942 24.126 42.4129 24.126ZM42.4129 23.202C43.0849 23.202 43.6169 22.9733 44.0089 22.516C44.4009 22.0493 44.5969 21.3727 44.5969 20.486C44.5969 19.59 44.3962 18.9133 43.9949 18.456C43.6029 17.9893 43.0755 17.756 42.4129 17.756C41.7502 17.756 41.2229 17.9893 40.8309 18.456C40.4389 18.9133 40.2429 19.59 40.2429 20.486C40.2429 21.3727 40.4389 22.0493 40.8309 22.516C41.2229 22.9733 41.7502 23.202 42.4129 23.202ZM50.0049 24.126C49.1742 24.126 48.5442 23.8973 48.1149 23.44C47.6949 22.9827 47.4849 22.2827 47.4849 21.34V16.972H48.6189V21.312C48.6189 21.956 48.7496 22.432 49.0109 22.74C49.2722 23.0387 49.6782 23.188 50.2289 23.188C50.8449 23.188 51.3396 22.9873 51.7129 22.586C52.0862 22.1847 52.2729 21.648 52.2729 20.976V16.972H53.4069V24H52.3009V22.418H52.4829C52.2869 22.9593 51.9696 23.3793 51.5309 23.678C51.1016 23.9767 50.5929 24.126 50.0049 24.126ZM57.679 24L54.669 16.972H55.901L58.421 23.16H58.043L60.591 16.972H61.767L58.757 24H57.679ZM63.0165 24V18.666C63.0165 18.386 63.0071 18.1013 62.9885 17.812C62.9791 17.5227 62.9605 17.2427 62.9325 16.972H64.0245L64.1645 18.68L63.9685 18.694C64.0618 18.274 64.2251 17.9287 64.4585 17.658C64.6918 17.3873 64.9671 17.1867 65.2845 17.056C65.6018 16.916 65.9331 16.846 66.2785 16.846C66.4185 16.846 66.5398 16.8507 66.6425 16.86C66.7545 16.8693 66.8571 16.8927 66.9505 16.93L66.9365 17.938C66.7965 17.8913 66.6658 17.8633 66.5445 17.854C66.4325 17.8353 66.3018 17.826 66.1525 17.826C65.7418 17.826 65.3825 17.924 65.0745 18.12C64.7758 18.316 64.5471 18.568 64.3885 18.876C64.2391 19.184 64.1645 19.5107 64.1645 19.856V24H63.0165ZM68.1304 24V16.972H69.2644V24H68.1304ZM67.9904 15.376V14.102H69.3904V15.376H67.9904ZM71.4384 24V18.666C71.4384 18.386 71.429 18.1013 71.4104 17.812C71.401 17.5227 71.3824 17.2427 71.3544 16.972H72.4464L72.5864 18.68L72.3904 18.694C72.4837 18.274 72.647 17.9287 72.8804 17.658C73.1137 17.3873 73.389 17.1867 73.7064 17.056C74.0237 16.916 74.355 16.846 74.7004 16.846C74.8404 16.846 74.9617 16.8507 75.0644 16.86C75.1764 16.8693 75.279 16.8927 75.3724 16.93L75.3584 17.938C75.2184 17.8913 75.0877 17.8633 74.9664 17.854C74.8544 17.8353 74.7237 17.826 74.5744 17.826C74.1637 17.826 73.8044 17.924 73.4964 18.12C73.1977 18.316 72.969 18.568 72.8104 18.876C72.661 19.184 72.5864 19.5107 72.5864 19.856V24H71.4384Z" fill="white"/>
</svg>
