<svg width="122" height="37" viewBox="0 0 122 37" fill="none" xmlns="http://www.w3.org/2000/svg">
<rect width="122" height="37" rx="6" fill="#034662"/>
<path d="M108.354 18.3536C108.549 18.1583 108.549 17.8417 108.354 17.6465L105.172 14.4645C104.976 14.2692 104.66 14.2692 104.465 14.4645C104.269 14.6597 104.269 14.9763 104.465 15.1716L107.293 18L104.465 20.8284C104.269 21.0237 104.269 21.3403 104.465 21.5355C104.66 21.7308 104.976 21.7308 105.172 21.5355L108.354 18.3536ZM85 18.5H108V17.5H85V18.5Z" fill="white"/>
<path d="M17.9918 24V14.13H21.2678C22.3598 14.13 23.2838 14.3213 24.0398 14.704C24.7958 15.0773 25.3698 15.6327 25.7618 16.37C26.1538 17.098 26.3498 17.994 26.3498 19.058C26.3498 20.1127 26.1538 21.0087 25.7618 21.746C25.3698 22.4833 24.7958 23.0433 24.0398 23.426C23.2838 23.8087 22.3598 24 21.2678 24H17.9918ZM19.1538 23.006H21.1838C22.5278 23.006 23.5264 22.6793 24.1798 22.026C24.8331 21.3633 25.1598 20.374 25.1598 19.058C25.1598 17.7327 24.8331 16.7433 24.1798 16.09C23.5264 15.4367 22.5278 15.11 21.1838 15.11H19.1538V23.006ZM28.3248 24V16.972H29.4588V24H28.3248ZM28.1848 15.376V14.102H29.5848V15.376H28.1848ZM33.9987 24.126C33.4387 24.126 32.916 24.0513 32.4307 23.902C31.9454 23.7433 31.544 23.524 31.2267 23.244L31.6187 22.446C31.964 22.7167 32.3374 22.9173 32.7387 23.048C33.1494 23.1787 33.574 23.244 34.0127 23.244C34.5727 23.244 34.9927 23.146 35.2727 22.95C35.562 22.7447 35.7067 22.4647 35.7067 22.11C35.7067 21.8393 35.6134 21.6247 35.4267 21.466C35.2494 21.298 34.9554 21.1673 34.5447 21.074L33.2427 20.808C32.6454 20.6773 32.1974 20.458 31.8987 20.15C31.6 19.8327 31.4507 19.4313 31.4507 18.946C31.4507 18.5353 31.558 18.176 31.7727 17.868C31.9874 17.5507 32.3 17.3033 32.7107 17.126C33.1214 16.9393 33.602 16.846 34.1527 16.846C34.666 16.846 35.1374 16.9253 35.5667 17.084C36.0054 17.2333 36.3694 17.4527 36.6587 17.742L36.2527 18.526C35.9727 18.2553 35.6507 18.0547 35.2867 17.924C34.932 17.784 34.5634 17.714 34.1807 17.714C33.63 17.714 33.2147 17.826 32.9347 18.05C32.664 18.2647 32.5287 18.5493 32.5287 18.904C32.5287 19.1747 32.6127 19.3987 32.7807 19.576C32.958 19.744 33.2287 19.87 33.5927 19.954L34.8947 20.22C35.5294 20.36 36.0007 20.5793 36.3087 20.878C36.626 21.1673 36.7847 21.5593 36.7847 22.054C36.7847 22.474 36.668 22.8427 36.4347 23.16C36.2014 23.468 35.8747 23.706 35.4547 23.874C35.044 24.042 34.5587 24.126 33.9987 24.126ZM41.56 24.126C40.8693 24.126 40.2673 23.9767 39.754 23.678C39.25 23.3793 38.858 22.9547 38.578 22.404C38.3073 21.8533 38.172 21.2 38.172 20.444C38.172 19.6787 38.312 19.03 38.592 18.498C38.872 17.9567 39.264 17.546 39.768 17.266C40.2813 16.986 40.8787 16.846 41.56 16.846C42.008 16.846 42.442 16.9253 42.862 17.084C43.2913 17.2427 43.646 17.4667 43.926 17.756L43.52 18.568C43.24 18.2973 42.932 18.0967 42.596 17.966C42.2693 17.8353 41.9473 17.77 41.63 17.77C40.902 17.77 40.3373 17.9987 39.936 18.456C39.5347 18.9133 39.334 19.5807 39.334 20.458C39.334 21.326 39.5347 21.998 39.936 22.474C40.3373 22.95 40.902 23.188 41.63 23.188C41.938 23.188 42.2553 23.1273 42.582 23.006C42.918 22.8847 43.2307 22.684 43.52 22.404L43.926 23.202C43.6367 23.5007 43.2773 23.7293 42.848 23.888C42.4187 24.0467 41.9893 24.126 41.56 24.126ZM48.2849 24.126C47.6129 24.126 47.0249 23.9813 46.5209 23.692C46.0263 23.3933 45.6436 22.9733 45.3729 22.432C45.1023 21.8813 44.9669 21.2327 44.9669 20.486C44.9669 19.73 45.1023 19.0813 45.3729 18.54C45.6436 17.9987 46.0263 17.5833 46.5209 17.294C47.0249 16.9953 47.6129 16.846 48.2849 16.846C48.9663 16.846 49.5543 16.9953 50.0489 17.294C50.5529 17.5833 50.9403 17.9987 51.2109 18.54C51.4909 19.0813 51.6309 19.73 51.6309 20.486C51.6309 21.2327 51.4909 21.8813 51.2109 22.432C50.9403 22.9733 50.5529 23.3933 50.0489 23.692C49.5543 23.9813 48.9663 24.126 48.2849 24.126ZM48.2849 23.202C48.9569 23.202 49.4889 22.9733 49.8809 22.516C50.2729 22.0493 50.4689 21.3727 50.4689 20.486C50.4689 19.59 50.2683 18.9133 49.8669 18.456C49.4749 17.9893 48.9476 17.756 48.2849 17.756C47.6223 17.756 47.0949 17.9893 46.7029 18.456C46.3109 18.9133 46.1149 19.59 46.1149 20.486C46.1149 21.3727 46.3109 22.0493 46.7029 22.516C47.0949 22.9733 47.6223 23.202 48.2849 23.202ZM55.3753 24L52.3653 16.972H53.5973L56.1173 23.16H55.7393L58.2873 16.972H59.4633L56.4533 24H55.3753ZM63.7671 24.126C62.6657 24.126 61.7977 23.8087 61.1631 23.174C60.5284 22.53 60.2111 21.6387 60.2111 20.5C60.2111 19.7627 60.3511 19.1233 60.6311 18.582C60.9111 18.0313 61.3031 17.6067 61.8071 17.308C62.3111 17 62.8897 16.846 63.5431 16.846C64.1871 16.846 64.7284 16.9813 65.1671 17.252C65.6057 17.5227 65.9417 17.91 66.1751 18.414C66.4084 18.9087 66.5251 19.4967 66.5251 20.178V20.598H61.0791V19.884H65.7831L65.5451 20.066C65.5451 19.3193 65.3771 18.736 65.0411 18.316C64.7051 17.896 64.2057 17.686 63.5431 17.686C62.8431 17.686 62.2971 17.9333 61.9051 18.428C61.5131 18.9133 61.3171 19.5713 61.3171 20.402V20.528C61.3171 21.4053 61.5317 22.0727 61.9611 22.53C62.3997 22.978 63.0111 23.202 63.7951 23.202C64.2151 23.202 64.6071 23.1413 64.9711 23.02C65.3444 22.8893 65.6991 22.6793 66.0351 22.39L66.4271 23.188C66.1191 23.4867 65.7271 23.72 65.2511 23.888C64.7844 24.0467 64.2897 24.126 63.7671 24.126ZM68.2323 24V18.666C68.2323 18.386 68.223 18.1013 68.2043 17.812C68.195 17.5227 68.1763 17.2427 68.1483 16.972H69.2403L69.3803 18.68L69.1843 18.694C69.2776 18.274 69.441 17.9287 69.6743 17.658C69.9076 17.3873 70.183 17.1867 70.5003 17.056C70.8176 16.916 71.149 16.846 71.4943 16.846C71.6343 16.846 71.7556 16.8507 71.8583 16.86C71.9703 16.8693 72.073 16.8927 72.1663 16.93L72.1523 17.938C72.0123 17.8913 71.8816 17.8633 71.7603 17.854C71.6483 17.8353 71.5176 17.826 71.3683 17.826C70.9576 17.826 70.5983 17.924 70.2903 18.12C69.9916 18.316 69.763 18.568 69.6043 18.876C69.455 19.184 69.3803 19.5107 69.3803 19.856V24H68.2323Z" fill="white"/>
</svg>
