<svg width="122" height="37" viewBox="0 0 122 37" fill="none" xmlns="http://www.w3.org/2000/svg">
<rect width="122" height="37" rx="6" fill="#034662"/>
<path d="M108.354 18.3536C108.549 18.1583 108.549 17.8417 108.354 17.6465L105.172 14.4645C104.976 14.2692 104.66 14.2692 104.465 14.4645C104.269 14.6597 104.269 14.9763 104.465 15.1716L107.293 18L104.465 20.8284C104.269 21.0237 104.269 21.3403 104.465 21.5355C104.66 21.7308 104.976 21.7308 105.172 21.5355L108.354 18.3536ZM85 18.5H108V17.5H85V18.5Z" fill="white"/>
<path d="M24.4767 24L20.1787 14.13H21.4247L25.2467 23.076H24.8127L28.6627 14.13H29.8667L25.5407 24H24.4767ZM33.0818 24.126C32.4098 24.126 31.8218 23.9813 31.3178 23.692C30.8231 23.3933 30.4405 22.9733 30.1698 22.432C29.8991 21.8813 29.7638 21.2327 29.7638 20.486C29.7638 19.73 29.8991 19.0813 30.1698 18.54C30.4405 17.9987 30.8231 17.5833 31.3178 17.294C31.8218 16.9953 32.4098 16.846 33.0818 16.846C33.7631 16.846 34.3511 16.9953 34.8458 17.294C35.3498 17.5833 35.7371 17.9987 36.0078 18.54C36.2878 19.0813 36.4278 19.73 36.4278 20.486C36.4278 21.2327 36.2878 21.8813 36.0078 22.432C35.7371 22.9733 35.3498 23.3933 34.8458 23.692C34.3511 23.9813 33.7631 24.126 33.0818 24.126ZM33.0818 23.202C33.7538 23.202 34.2858 22.9733 34.6778 22.516C35.0698 22.0493 35.2658 21.3727 35.2658 20.486C35.2658 19.59 35.0651 18.9133 34.6638 18.456C34.2718 17.9893 33.7445 17.756 33.0818 17.756C32.4191 17.756 31.8918 17.9893 31.4998 18.456C31.1078 18.9133 30.9118 19.59 30.9118 20.486C30.9118 21.3727 31.1078 22.0493 31.4998 22.516C31.8918 22.9733 32.4191 23.202 33.0818 23.202ZM38.1958 24V16.972H39.3298V24H38.1958ZM38.0558 15.376V14.102H39.4558V15.376H38.0558ZM41.5038 24V18.666C41.5038 18.386 41.4944 18.1013 41.4758 17.812C41.4664 17.5227 41.4478 17.2427 41.4198 16.972H42.5118L42.6518 18.68L42.4558 18.694C42.5491 18.274 42.7124 17.9287 42.9458 17.658C43.1791 17.3873 43.4544 17.1867 43.7718 17.056C44.0891 16.916 44.4204 16.846 44.7658 16.846C44.9058 16.846 45.0271 16.8507 45.1298 16.86C45.2418 16.8693 45.3444 16.8927 45.4378 16.93L45.4238 17.938C45.2838 17.8913 45.1531 17.8633 45.0318 17.854C44.9198 17.8353 44.7891 17.826 44.6398 17.826C44.2291 17.826 43.8698 17.924 43.5618 18.12C43.2631 18.316 43.0344 18.568 42.8758 18.876C42.7264 19.184 42.6518 19.5107 42.6518 19.856V24H41.5038ZM50.3941 24V14.13H54.3421C55.3874 14.13 56.1948 14.354 56.7641 14.802C57.3334 15.25 57.6181 15.8847 57.6181 16.706C57.6181 17.322 57.4314 17.8353 57.0581 18.246C56.6941 18.6567 56.1854 18.9273 55.5321 19.058V18.862C56.2601 18.946 56.8294 19.198 57.2401 19.618C57.6601 20.0287 57.8701 20.584 57.8701 21.284C57.8701 22.1613 57.5761 22.8333 56.9881 23.3C56.4094 23.7667 55.5881 24 54.5241 24H50.3941ZM51.5281 23.062H54.4121C55.1214 23.062 55.6814 22.9267 56.0921 22.656C56.5121 22.376 56.7221 21.914 56.7221 21.27C56.7221 20.6167 56.5121 20.1547 56.0921 19.884C55.6814 19.604 55.1214 19.464 54.4121 19.464H51.5281V23.062ZM51.5281 18.54H54.1741C54.9394 18.54 55.5134 18.3907 55.8961 18.092C56.2788 17.7933 56.4701 17.364 56.4701 16.804C56.4701 16.2253 56.2788 15.7913 55.8961 15.502C55.5134 15.2033 54.9394 15.054 54.1741 15.054H51.5281V18.54ZM58.8204 24L63.1744 14.13H64.1824L68.6064 24H67.4024L66.1704 21.186L66.6884 21.48H60.6544L61.2144 21.186L60.0104 24H58.8204ZM63.6644 15.46L61.3964 20.78L61.0604 20.528H66.2684L66.0164 20.78L63.6924 15.46H63.6644Z" fill="white"/>
</svg>
