<svg width="122" height="37" viewBox="0 0 122 37" fill="none" xmlns="http://www.w3.org/2000/svg">
<rect width="122" height="37" rx="6" fill="#034662"/>
<path d="M108.354 18.3536C108.549 18.1583 108.549 17.8417 108.354 17.6465L105.172 14.4645C104.976 14.2692 104.66 14.2692 104.465 14.4645C104.269 14.6597 104.269 14.9763 104.465 15.1716L107.293 18L104.465 20.8284C104.269 21.0237 104.269 21.3403 104.465 21.5355C104.66 21.7308 104.976 21.7308 105.172 21.5355L108.354 18.3536ZM85 18.5H108V17.5H85V18.5Z" fill="white"/>
<path d="M19.5 24L23.854 14.13H24.862L29.286 24H28.082L26.85 21.186L27.368 21.48H21.334L21.894 21.186L20.69 24H19.5ZM24.344 15.46L22.076 20.78L21.74 20.528H26.948L26.696 20.78L24.372 15.46H24.344ZM33.5346 24.126C32.8439 24.126 32.2419 23.9767 31.7286 23.678C31.2246 23.3793 30.8326 22.9547 30.5526 22.404C30.2819 21.8533 30.1466 21.2 30.1466 20.444C30.1466 19.6787 30.2866 19.03 30.5666 18.498C30.8466 17.9567 31.2386 17.546 31.7426 17.266C32.2559 16.986 32.8533 16.846 33.5346 16.846C33.9826 16.846 34.4166 16.9253 34.8366 17.084C35.2659 17.2427 35.6206 17.4667 35.9006 17.756L35.4946 18.568C35.2146 18.2973 34.9066 18.0967 34.5706 17.966C34.2439 17.8353 33.9219 17.77 33.6046 17.77C32.8766 17.77 32.3119 17.9987 31.9106 18.456C31.5093 18.9133 31.3086 19.5807 31.3086 20.458C31.3086 21.326 31.5093 21.998 31.9106 22.474C32.3119 22.95 32.8766 23.188 33.6046 23.188C33.9126 23.188 34.2299 23.1273 34.5566 23.006C34.8926 22.8847 35.2053 22.684 35.4946 22.404L35.9006 23.202C35.6113 23.5007 35.2519 23.7293 34.8226 23.888C34.3933 24.0467 33.9639 24.126 33.5346 24.126ZM37.5123 24V13.696H38.6463V18.526H38.4642C38.6603 17.9753 38.9869 17.56 39.4443 17.28C39.9109 16.9907 40.4476 16.846 41.0543 16.846C41.8943 16.846 42.5196 17.0747 42.9303 17.532C43.3409 17.98 43.5463 18.6613 43.5463 19.576V24H42.4123V19.646C42.4123 18.9927 42.2816 18.5167 42.0203 18.218C41.7683 17.9193 41.3576 17.77 40.7883 17.77C40.1349 17.77 39.6123 17.9707 39.2203 18.372C38.8376 18.7733 38.6463 19.3007 38.6463 19.954V24H37.5123ZM48.8374 24.126C47.736 24.126 46.868 23.8087 46.2334 23.174C45.5987 22.53 45.2814 21.6387 45.2814 20.5C45.2814 19.7627 45.4214 19.1233 45.7014 18.582C45.9814 18.0313 46.3734 17.6067 46.8774 17.308C47.3814 17 47.96 16.846 48.6134 16.846C49.2574 16.846 49.7987 16.9813 50.2374 17.252C50.676 17.5227 51.012 17.91 51.2454 18.414C51.4787 18.9087 51.5954 19.4967 51.5954 20.178V20.598H46.1494V19.884H50.8534L50.6154 20.066C50.6154 19.3193 50.4474 18.736 50.1114 18.316C49.7754 17.896 49.276 17.686 48.6134 17.686C47.9134 17.686 47.3674 17.9333 46.9754 18.428C46.5834 18.9133 46.3874 19.5713 46.3874 20.402V20.528C46.3874 21.4053 46.602 22.0727 47.0314 22.53C47.47 22.978 48.0814 23.202 48.8654 23.202C49.2854 23.202 49.6774 23.1413 50.0414 23.02C50.4147 22.8893 50.7694 22.6793 51.1054 22.39L51.4974 23.188C51.1894 23.4867 50.7974 23.72 50.3214 23.888C49.8547 24.0467 49.36 24.126 48.8374 24.126ZM55.8226 24.126C55.1319 24.126 54.6046 23.93 54.2406 23.538C53.8766 23.1367 53.6946 22.5347 53.6946 21.732V17.854H52.3226V16.972H53.6946V15.054L54.8286 14.732V16.972H56.8446V17.854H54.8286V21.606C54.8286 22.166 54.9219 22.5673 55.1086 22.81C55.3046 23.0433 55.5939 23.16 55.9766 23.16C56.1539 23.16 56.3126 23.146 56.4526 23.118C56.5926 23.0807 56.7186 23.0387 56.8306 22.992V23.944C56.6999 24 56.5413 24.042 56.3546 24.07C56.1773 24.1073 55.9999 24.126 55.8226 24.126ZM61.2788 24.126C60.1774 24.126 59.3094 23.8087 58.6748 23.174C58.0401 22.53 57.7228 21.6387 57.7228 20.5C57.7228 19.7627 57.8628 19.1233 58.1428 18.582C58.4228 18.0313 58.8148 17.6067 59.3188 17.308C59.8228 17 60.4014 16.846 61.0548 16.846C61.6988 16.846 62.2401 16.9813 62.6788 17.252C63.1174 17.5227 63.4534 17.91 63.6868 18.414C63.9201 18.9087 64.0368 19.4967 64.0368 20.178V20.598H58.5908V19.884H63.2948L63.0568 20.066C63.0568 19.3193 62.8888 18.736 62.5528 18.316C62.2168 17.896 61.7174 17.686 61.0548 17.686C60.3548 17.686 59.8088 17.9333 59.4168 18.428C59.0248 18.9133 58.8288 19.5713 58.8288 20.402V20.528C58.8288 21.4053 59.0434 22.0727 59.4728 22.53C59.9114 22.978 60.5228 23.202 61.3068 23.202C61.7268 23.202 62.1188 23.1413 62.4828 23.02C62.8561 22.8893 63.2108 22.6793 63.5468 22.39L63.9388 23.188C63.6308 23.4867 63.2388 23.72 62.7628 23.888C62.2961 24.0467 61.8014 24.126 61.2788 24.126ZM65.744 24V18.666C65.744 18.386 65.7347 18.1013 65.716 17.812C65.7067 17.5227 65.688 17.2427 65.66 16.972H66.752L66.892 18.68L66.696 18.694C66.7893 18.274 66.9527 17.9287 67.186 17.658C67.4193 17.3873 67.6947 17.1867 68.012 17.056C68.3293 16.916 68.6607 16.846 69.006 16.846C69.146 16.846 69.2673 16.8507 69.37 16.86C69.482 16.8693 69.5847 16.8927 69.678 16.93L69.664 17.938C69.524 17.8913 69.3933 17.8633 69.272 17.854C69.16 17.8353 69.0293 17.826 68.88 17.826C68.4693 17.826 68.11 17.924 67.802 18.12C67.5033 18.316 67.2747 18.568 67.116 18.876C66.9667 19.184 66.892 19.5107 66.892 19.856V24H65.744Z" fill="white"/>
</svg>
