<svg width="133" height="27" viewBox="0 0 133 27" fill="none" xmlns="http://www.w3.org/2000/svg">
<rect x="0.5" y="0.5" width="132" height="26" stroke="black"/>
<path d="M27.2983 17.088C26.5356 17.088 25.8866 16.9303 25.3513 16.615C24.8233 16.2923 24.42 15.834 24.1413 15.24C23.8626 14.646 23.7233 13.9383 23.7233 13.117C23.7233 12.2957 23.8626 11.5917 24.1413 11.005C24.42 10.411 24.8233 9.95633 25.3513 9.641C25.8866 9.31833 26.5356 9.157 27.2983 9.157C27.8556 9.157 28.3506 9.245 28.7833 9.421C29.216 9.58967 29.5936 9.84267 29.9163 10.18L29.6303 10.73C29.271 10.4 28.9116 10.1617 28.5523 10.015C28.193 9.861 27.775 9.784 27.2983 9.784C26.367 9.784 25.6593 10.0773 25.1753 10.664C24.6913 11.2433 24.4493 12.061 24.4493 13.117C24.4493 14.173 24.6913 14.9943 25.1753 15.581C25.6593 16.1677 26.367 16.461 27.2983 16.461C27.775 16.461 28.193 16.3877 28.5523 16.241C28.9116 16.087 29.271 15.845 29.6303 15.515L29.9163 16.065C29.5936 16.4023 29.2123 16.659 28.7723 16.835C28.3396 17.0037 27.8483 17.088 27.2983 17.088ZM33.2321 17.088C32.7114 17.088 32.2604 16.9743 31.8791 16.747C31.5051 16.5197 31.2154 16.1933 31.0101 15.768C30.8048 15.3427 30.7021 14.833 30.7021 14.239C30.7021 13.6523 30.8048 13.1463 31.0101 12.721C31.2154 12.2957 31.5051 11.9693 31.8791 11.742C32.2604 11.5073 32.7114 11.39 33.2321 11.39C33.7454 11.39 34.1891 11.5073 34.5631 11.742C34.9444 11.9693 35.2378 12.2957 35.4431 12.721C35.6558 13.1463 35.7621 13.6523 35.7621 14.239C35.7621 14.833 35.6558 15.3427 35.4431 15.768C35.2378 16.1933 34.9444 16.5197 34.5631 16.747C34.1891 16.9743 33.7454 17.088 33.2321 17.088ZM33.2321 16.516C33.7894 16.516 34.2368 16.3217 34.5741 15.933C34.9114 15.5443 35.0801 14.9797 35.0801 14.239C35.0801 13.4983 34.9114 12.9337 34.5741 12.545C34.2368 12.1563 33.7894 11.962 33.2321 11.962C32.6674 11.962 32.2164 12.1563 31.8791 12.545C31.5491 12.9337 31.3841 13.4983 31.3841 14.239C31.3841 14.9797 31.5491 15.5443 31.8791 15.933C32.2164 16.3217 32.6674 16.516 33.2321 16.516ZM37.2309 17V12.721C37.2309 12.523 37.2235 12.3213 37.2089 12.116C37.1942 11.9107 37.1722 11.7017 37.1429 11.489H37.8029L37.9019 12.754H37.7699C37.9312 12.314 38.1915 11.9767 38.5509 11.742C38.9102 11.5073 39.3282 11.39 39.8049 11.39C40.4575 11.39 40.9489 11.5623 41.2789 11.907C41.6162 12.2517 41.7849 12.7907 41.7849 13.524V17H41.1139V13.579C41.1139 13.0143 41.0002 12.6073 40.7729 12.358C40.5455 12.1013 40.1935 11.973 39.7169 11.973C39.1595 11.973 38.7159 12.1417 38.3859 12.479C38.0632 12.8163 37.9019 13.271 37.9019 13.843V17H37.2309ZM45.3722 17.088C44.8809 17.088 44.5032 16.9413 44.2392 16.648C43.9826 16.3547 43.8542 15.9037 43.8542 15.295V12.028H42.7542V11.489H43.8542V9.949L44.5252 9.729V11.489H46.1532V12.028H44.5252V15.196C44.5252 15.658 44.5986 15.9917 44.7452 16.197C44.8919 16.4023 45.1266 16.505 45.4492 16.505C45.5959 16.505 45.7242 16.4903 45.8342 16.461C45.9516 16.4317 46.0506 16.3987 46.1312 16.362V16.956C46.0432 16.9927 45.9296 17.022 45.7902 17.044C45.6509 17.0733 45.5116 17.088 45.3722 17.088ZM49.3863 17.088C48.8876 17.088 48.455 16.9743 48.0883 16.747C47.7216 16.5197 47.4393 16.1933 47.2413 15.768C47.0433 15.3427 46.9443 14.833 46.9443 14.239C46.9443 13.645 47.0433 13.139 47.2413 12.721C47.4466 12.2957 47.7326 11.9693 48.0993 11.742C48.466 11.5073 48.895 11.39 49.3863 11.39C49.8923 11.39 50.3286 11.522 50.6953 11.786C51.0693 12.05 51.315 12.4093 51.4323 12.864H51.3003L51.4103 11.489H52.0593C52.0373 11.7017 52.0153 11.9107 51.9933 12.116C51.9786 12.3213 51.9713 12.523 51.9713 12.721V17H51.3003V15.625H51.4213C51.304 16.0797 51.0583 16.439 50.6843 16.703C50.3176 16.9597 49.885 17.088 49.3863 17.088ZM49.4743 16.516C50.039 16.516 50.4863 16.3217 50.8163 15.933C51.1463 15.5443 51.3113 14.9797 51.3113 14.239C51.3113 13.4983 51.1463 12.9337 50.8163 12.545C50.4863 12.1563 50.039 11.962 49.4743 11.962C48.9096 11.962 48.4586 12.1563 48.1213 12.545C47.7913 12.9337 47.6263 13.4983 47.6263 14.239C47.6263 14.9797 47.7913 15.5443 48.1213 15.933C48.4586 16.3217 48.9096 16.516 49.4743 16.516ZM56.0173 17.088C55.4967 17.088 55.042 16.9743 54.6533 16.747C54.2647 16.5123 53.964 16.1787 53.7513 15.746C53.546 15.3133 53.4433 14.8 53.4433 14.206C53.4433 13.612 53.5497 13.106 53.7623 12.688C53.975 12.2627 54.272 11.94 54.6533 11.72C55.042 11.5 55.4967 11.39 56.0173 11.39C56.3693 11.39 56.7067 11.456 57.0293 11.588C57.3593 11.72 57.6307 11.9033 57.8433 12.138L57.5683 12.633C57.341 12.4057 57.0953 12.2407 56.8313 12.138C56.5673 12.028 56.3033 11.973 56.0393 11.973C55.438 11.973 54.9687 12.1637 54.6313 12.545C54.294 12.9263 54.1253 13.4837 54.1253 14.217C54.1253 14.9503 54.294 15.5187 54.6313 15.922C54.9687 16.318 55.438 16.516 56.0393 16.516C56.2887 16.516 56.5453 16.4647 56.8093 16.362C57.0807 16.2593 57.3337 16.0907 57.5683 15.856L57.8433 16.351C57.6233 16.5857 57.3447 16.769 57.0073 16.901C56.6773 17.0257 56.3473 17.088 56.0173 17.088ZM60.9806 17.088C60.4893 17.088 60.1116 16.9413 59.8476 16.648C59.591 16.3547 59.4626 15.9037 59.4626 15.295V12.028H58.3626V11.489H59.4626V9.949L60.1336 9.729V11.489H61.7616V12.028H60.1336V15.196C60.1336 15.658 60.207 15.9917 60.3536 16.197C60.5003 16.4023 60.735 16.505 61.0576 16.505C61.2043 16.505 61.3326 16.4903 61.4426 16.461C61.56 16.4317 61.659 16.3987 61.7396 16.362V16.956C61.6516 16.9927 61.538 17.022 61.3986 17.044C61.2593 17.0733 61.12 17.088 60.9806 17.088Z" fill="black"/>
<path d="M115.354 14.3535C115.549 14.1583 115.549 13.8417 115.354 13.6464L112.172 10.4644C111.976 10.2692 111.66 10.2692 111.465 10.4644C111.269 10.6597 111.269 10.9763 111.465 11.1715L114.293 14L111.465 16.8284C111.269 17.0237 111.269 17.3402 111.465 17.5355C111.66 17.7308 111.976 17.7308 112.172 17.5355L115.354 14.3535ZM92 14.5H115V13.5H92V14.5Z" fill="black"/>
</svg>
