<svg width="122" height="37" viewBox="0 0 122 37" fill="none" xmlns="http://www.w3.org/2000/svg">
<rect width="122" height="37" rx="6" fill="#034662"/>
<path d="M108.354 18.3536C108.549 18.1583 108.549 17.8417 108.354 17.6465L105.172 14.4645C104.976 14.2692 104.66 14.2692 104.465 14.4645C104.269 14.6597 104.269 14.9763 104.465 15.1716L107.293 18L104.465 20.8284C104.269 21.0237 104.269 21.3403 104.465 21.5355C104.66 21.7308 104.976 21.7308 105.172 21.5355L108.354 18.3536ZM85 18.5H108V17.5H85V18.5Z" fill="white"/>
<path d="M19.9058 24V14.13H26.2058V15.082H21.0398V18.512H25.8978V19.478H21.0398V23.034H26.2058V24H19.9058ZM28.0103 24V18.596C28.0103 18.3347 27.9963 18.0687 27.9683 17.798C27.9496 17.518 27.9263 17.2427 27.8983 16.972H28.9903L29.1303 18.512H28.9623C29.1676 17.9707 29.4943 17.56 29.9423 17.28C30.3996 16.9907 30.927 16.846 31.5243 16.846C32.355 16.846 32.9803 17.07 33.4003 17.518C33.8296 17.9567 34.0443 18.652 34.0443 19.604V24H32.9103V19.674C32.9103 19.0113 32.775 18.5307 32.5043 18.232C32.243 17.924 31.8323 17.77 31.2723 17.77C30.619 17.77 30.101 17.9707 29.7183 18.372C29.3356 18.7733 29.1443 19.31 29.1443 19.982V24H28.0103ZM38.2171 24L35.2071 16.972H36.4391L38.9591 23.16H38.5811L41.1291 16.972H42.3051L39.2951 24H38.2171ZM46.3709 24.126C45.6989 24.126 45.1109 23.9813 44.6069 23.692C44.1122 23.3933 43.7295 22.9733 43.4589 22.432C43.1882 21.8813 43.0529 21.2327 43.0529 20.486C43.0529 19.73 43.1882 19.0813 43.4589 18.54C43.7295 17.9987 44.1122 17.5833 44.6069 17.294C45.1109 16.9953 45.6989 16.846 46.3709 16.846C47.0522 16.846 47.6402 16.9953 48.1349 17.294C48.6389 17.5833 49.0262 17.9987 49.2969 18.54C49.5769 19.0813 49.7169 19.73 49.7169 20.486C49.7169 21.2327 49.5769 21.8813 49.2969 22.432C49.0262 22.9733 48.6389 23.3933 48.1349 23.692C47.6402 23.9813 47.0522 24.126 46.3709 24.126ZM46.3709 23.202C47.0429 23.202 47.5749 22.9733 47.9669 22.516C48.3589 22.0493 48.5549 21.3727 48.5549 20.486C48.5549 19.59 48.3542 18.9133 47.9529 18.456C47.5609 17.9893 47.0335 17.756 46.3709 17.756C45.7082 17.756 45.1809 17.9893 44.7889 18.456C44.3969 18.9133 44.2009 19.59 44.2009 20.486C44.2009 21.3727 44.3969 22.0493 44.7889 22.516C45.1809 22.9733 45.7082 23.202 46.3709 23.202ZM51.1092 27.178L50.8432 26.24C51.2819 26.1373 51.6459 26.016 51.9352 25.876C52.2339 25.7453 52.4812 25.568 52.6772 25.344C52.8732 25.12 53.0412 24.84 53.1812 24.504L53.5452 23.678L53.5172 24.154L50.4512 16.972H51.6832L54.2172 23.146H53.8532L56.3592 16.972H57.5492L54.3012 24.588C54.1145 25.036 53.9092 25.4093 53.6852 25.708C53.4612 26.016 53.2185 26.2633 52.9572 26.45C52.7052 26.646 52.4252 26.8 52.1172 26.912C51.8092 27.024 51.4732 27.1127 51.1092 27.178ZM61.853 24.126C60.7517 24.126 59.8837 23.8087 59.249 23.174C58.6143 22.53 58.297 21.6387 58.297 20.5C58.297 19.7627 58.437 19.1233 58.717 18.582C58.997 18.0313 59.389 17.6067 59.893 17.308C60.397 17 60.9757 16.846 61.629 16.846C62.273 16.846 62.8143 16.9813 63.253 17.252C63.6917 17.5227 64.0277 17.91 64.261 18.414C64.4943 18.9087 64.611 19.4967 64.611 20.178V20.598H59.165V19.884H63.869L63.631 20.066C63.631 19.3193 63.463 18.736 63.127 18.316C62.791 17.896 62.2917 17.686 61.629 17.686C60.929 17.686 60.383 17.9333 59.991 18.428C59.599 18.9133 59.403 19.5713 59.403 20.402V20.528C59.403 21.4053 59.6177 22.0727 60.047 22.53C60.4857 22.978 61.097 23.202 61.881 23.202C62.301 23.202 62.693 23.1413 63.057 23.02C63.4303 22.8893 63.785 22.6793 64.121 22.39L64.513 23.188C64.205 23.4867 63.813 23.72 63.337 23.888C62.8703 24.0467 62.3757 24.126 61.853 24.126ZM66.3182 24V18.666C66.3182 18.386 66.3089 18.1013 66.2902 17.812C66.2809 17.5227 66.2622 17.2427 66.2342 16.972H67.3262L67.4662 18.68L67.2702 18.694C67.3636 18.274 67.5269 17.9287 67.7602 17.658C67.9936 17.3873 68.2689 17.1867 68.5862 17.056C68.9036 16.916 69.2349 16.846 69.5802 16.846C69.7202 16.846 69.8416 16.8507 69.9442 16.86C70.0562 16.8693 70.1589 16.8927 70.2522 16.93L70.2382 17.938C70.0982 17.8913 69.9676 17.8633 69.8462 17.854C69.7342 17.8353 69.6036 17.826 69.4542 17.826C69.0436 17.826 68.6842 17.924 68.3762 18.12C68.0776 18.316 67.8489 18.568 67.6902 18.876C67.5409 19.184 67.4662 19.5107 67.4662 19.856V24H66.3182Z" fill="white"/>
</svg>
