<svg width="50" height="50" viewBox="0 0 50 50" fill="none" xmlns="http://www.w3.org/2000/svg">
<g clip-path="url(#clip0_2048_881)">
<path d="M50 37.5C50 38.9734 49.4147 40.3865 48.3729 41.4284C47.331 42.4702 45.9179 43.0556 44.4445 43.0556H33.3334V6.94444H44.4445C45.9179 6.94444 47.331 7.52976 48.3729 8.57163C49.4147 9.6135 50 11.0266 50 12.5V37.5Z" fill="#ED2939"/>
<path d="M5.55556 6.94444C4.08213 6.94444 2.66905 7.52976 1.62718 8.57163C0.585316 9.6135 0 11.0266 0 12.5L0 37.5C0 38.9734 0.585316 40.3865 1.62718 41.4284C2.66905 42.4702 4.08213 43.0556 5.55556 43.0556H16.6667V6.94444H5.55556Z" fill="#002495"/>
<path d="M16.6666 6.94444H33.3333V43.0556H16.6666V6.94444Z" fill="#EEEEEE"/>
</g>
<defs>
<clipPath id="clip0_2048_881">
<rect width="50" height="50" fill="white"/>
</clipPath>
</defs>
</svg>
