<svg width="133" height="27" viewBox="0 0 133 27" fill="none" xmlns="http://www.w3.org/2000/svg">
<rect x="0.5" y="0.5" width="132" height="26" stroke="white"/>
<path d="M27.2217 17V9.245H27.9037V12.765H32.8867V9.245H33.5687V17H32.8867V13.37H27.9037V17H27.2217ZM35.2926 13.117C35.2926 12.2957 35.4283 11.5917 35.6996 11.005C35.9783 10.411 36.378 9.95633 36.8986 9.641C37.4193 9.31833 38.0463 9.157 38.7796 9.157C39.4983 9.157 40.118 9.31833 40.6386 9.641C41.1666 9.95633 41.57 10.411 41.8486 11.005C42.1346 11.5917 42.2776 12.292 42.2776 13.106C42.2776 13.9273 42.1346 14.635 41.8486 15.229C41.5626 15.823 41.1556 16.2813 40.6276 16.604C40.107 16.9267 39.491 17.088 38.7796 17.088C38.0536 17.088 37.4303 16.9267 36.9096 16.604C36.389 16.2813 35.9893 15.823 35.7106 15.229C35.432 14.635 35.2926 13.931 35.2926 13.117ZM36.0186 13.117C36.0186 14.173 36.2533 14.998 36.7226 15.592C37.192 16.1787 37.8776 16.472 38.7796 16.472C39.6523 16.472 40.3343 16.1787 40.8256 15.592C41.317 14.998 41.5626 14.173 41.5626 13.117C41.5626 12.0537 41.317 11.2323 40.8256 10.653C40.3416 10.0663 39.6596 9.773 38.7796 9.773C37.8776 9.773 37.192 10.0663 36.7226 10.653C36.2533 11.2323 36.0186 12.0537 36.0186 13.117ZM44.0118 17V9.245H44.6058L47.8398 16.549H47.5208L50.7658 9.245H51.3488V17H50.7218V10.048H51.0188L47.9278 17H47.4328L44.3418 10.048H44.6388V17H44.0118ZM53.3897 17V9.245H58.2077V9.828H54.0497V12.776H57.9657V13.359H54.0497V16.417H58.2077V17H53.3897Z" fill="white"/>
<path d="M115.354 14.3535C115.549 14.1583 115.549 13.8417 115.354 13.6464L112.172 10.4644C111.976 10.2692 111.66 10.2692 111.465 10.4644C111.269 10.6597 111.269 10.9763 111.465 11.1715L114.293 14L111.465 16.8284C111.269 17.0237 111.269 17.3402 111.465 17.5355C111.66 17.7308 111.976 17.7308 112.172 17.5355L115.354 14.3535ZM92 14.5H115V13.5H92V14.5Z" fill="white"/>
</svg>
