<svg width="133" height="27" viewBox="0 0 133 27" fill="none" xmlns="http://www.w3.org/2000/svg">
<rect x="0.5" y="0.5" width="132" height="26" stroke="white"/>
<path d="M14.9595 17V9.245H15.5095L20.7015 16.197H20.4595V9.245H21.0865V17H20.5475L15.3555 10.048H15.5865V17H14.9595ZM25.3893 17.088C24.5533 17.088 23.8897 16.8387 23.3983 16.34C22.9143 15.8413 22.6723 15.1483 22.6723 14.261C22.6723 13.6743 22.7787 13.1683 22.9913 12.743C23.2113 12.3177 23.5157 11.9877 23.9043 11.753C24.293 11.511 24.744 11.39 25.2573 11.39C25.7487 11.39 26.163 11.4963 26.5003 11.709C26.8377 11.9143 27.098 12.2113 27.2813 12.6C27.4647 12.9813 27.5563 13.436 27.5563 13.964V14.272H23.1563V13.788H27.1383L26.9513 13.931C26.9513 13.3077 26.8083 12.82 26.5223 12.468C26.2363 12.1087 25.811 11.929 25.2463 11.929C24.645 11.929 24.1757 12.138 23.8383 12.556C23.501 12.9667 23.3323 13.513 23.3323 14.195V14.272C23.3323 15.0053 23.512 15.5627 23.8713 15.944C24.238 16.3253 24.7477 16.516 25.4003 16.516C25.7377 16.516 26.053 16.4647 26.3463 16.362C26.6397 16.2593 26.922 16.0833 27.1933 15.834L27.4683 16.329C27.2337 16.571 26.9293 16.758 26.5553 16.89C26.1813 17.022 25.7927 17.088 25.3893 17.088ZM28.2613 17L30.6813 13.975V14.338L28.3823 11.489H29.2073L31.0553 13.832H30.8133L32.6613 11.489H33.4643L31.2093 14.316V14.008L33.6073 17H32.7713L30.8133 14.503H31.0553L29.0753 17H28.2613ZM36.5368 17.088C36.0455 17.088 35.6678 16.9413 35.4038 16.648C35.1471 16.3547 35.0188 15.9037 35.0188 15.295V12.028H33.9188V11.489H35.0188V9.949L35.6898 9.729V11.489H37.3178V12.028H35.6898V15.196C35.6898 15.658 35.7631 15.9917 35.9098 16.197C36.0565 16.4023 36.2911 16.505 36.6138 16.505C36.7605 16.505 36.8888 16.4903 36.9988 16.461C37.1161 16.4317 37.2151 16.3987 37.2958 16.362V16.956C37.2078 16.9927 37.0941 17.022 36.9548 17.044C36.8155 17.0733 36.6761 17.088 36.5368 17.088ZM43.3546 17.088C42.8559 17.088 42.4232 16.9743 42.0566 16.747C41.6899 16.5197 41.4076 16.1933 41.2096 15.768C41.0116 15.3427 40.9126 14.833 40.9126 14.239C40.9126 13.645 41.0116 13.139 41.2096 12.721C41.4149 12.2957 41.7009 11.9693 42.0676 11.742C42.4342 11.5073 42.8632 11.39 43.3546 11.39C43.8606 11.39 44.2969 11.522 44.6636 11.786C45.0376 12.05 45.2832 12.4093 45.4006 12.864H45.2686L45.3786 11.489H46.0276C46.0056 11.7017 45.9836 11.9107 45.9616 12.116C45.9469 12.3213 45.9396 12.523 45.9396 12.721V17H45.2686V15.625H45.3896C45.2722 16.0797 45.0266 16.439 44.6526 16.703C44.2859 16.9597 43.8532 17.088 43.3546 17.088ZM43.4426 16.516C44.0072 16.516 44.4546 16.3217 44.7846 15.933C45.1146 15.5443 45.2796 14.9797 45.2796 14.239C45.2796 13.4983 45.1146 12.9337 44.7846 12.545C44.4546 12.1563 44.0072 11.962 43.4426 11.962C42.8779 11.962 42.4269 12.1563 42.0896 12.545C41.7596 12.9337 41.5946 13.4983 41.5946 14.239C41.5946 14.9797 41.7596 15.5443 42.0896 15.933C42.4269 16.3217 42.8779 16.516 43.4426 16.516ZM47.7526 17V12.776C47.7526 12.5633 47.7453 12.3507 47.7306 12.138C47.7233 11.918 47.7049 11.7017 47.6756 11.489H48.3356L48.4236 12.754L48.2916 12.765C48.3649 12.457 48.4969 12.204 48.6876 12.006C48.8783 11.8007 49.0983 11.6467 49.3476 11.544C49.5969 11.4413 49.8536 11.39 50.1176 11.39C50.2129 11.39 50.3009 11.3973 50.3816 11.412C50.4696 11.4193 50.5503 11.434 50.6236 11.456L50.6016 12.061C50.5136 12.0317 50.4256 12.0133 50.3376 12.006C50.2496 11.9987 50.1543 11.995 50.0516 11.995C49.7216 11.995 49.4319 12.0757 49.1826 12.237C48.9406 12.3983 48.7536 12.6037 48.6216 12.853C48.4896 13.1023 48.4236 13.3553 48.4236 13.612V17H47.7526ZM53.6706 17.088C53.1793 17.088 52.8016 16.9413 52.5376 16.648C52.2809 16.3547 52.1526 15.9037 52.1526 15.295V12.028H51.0526V11.489H52.1526V9.949L52.8236 9.729V11.489H54.4516V12.028H52.8236V15.196C52.8236 15.658 52.8969 15.9917 53.0436 16.197C53.1903 16.4023 53.4249 16.505 53.7476 16.505C53.8943 16.505 54.0226 16.4903 54.1326 16.461C54.2499 16.4317 54.3489 16.3987 54.4296 16.362V16.956C54.3416 16.9927 54.2279 17.022 54.0886 17.044C53.9493 17.0733 53.8099 17.088 53.6706 17.088ZM55.5946 17V11.489H56.2656V17H55.5946ZM55.4846 10.136V9.3H56.3866V10.136H55.4846ZM60.3196 17.088C59.7989 17.088 59.3442 16.9743 58.9556 16.747C58.5669 16.5123 58.2662 16.1787 58.0536 15.746C57.8482 15.3133 57.7456 14.8 57.7456 14.206C57.7456 13.612 57.8519 13.106 58.0646 12.688C58.2772 12.2627 58.5742 11.94 58.9556 11.72C59.3442 11.5 59.7989 11.39 60.3196 11.39C60.6716 11.39 61.0089 11.456 61.3316 11.588C61.6616 11.72 61.9329 11.9033 62.1456 12.138L61.8706 12.633C61.6432 12.4057 61.3976 12.2407 61.1336 12.138C60.8696 12.028 60.6056 11.973 60.3416 11.973C59.7402 11.973 59.2709 12.1637 58.9336 12.545C58.5962 12.9263 58.4276 13.4837 58.4276 14.217C58.4276 14.9503 58.5962 15.5187 58.9336 15.922C59.2709 16.318 59.7402 16.516 60.3416 16.516C60.5909 16.516 60.8476 16.4647 61.1116 16.362C61.3829 16.2593 61.6359 16.0907 61.8706 15.856L62.1456 16.351C61.9256 16.5857 61.6469 16.769 61.3096 16.901C60.9796 17.0257 60.6496 17.088 60.3196 17.088ZM63.5009 17V8.904H64.1719V17H63.5009ZM68.3688 17.088C67.5328 17.088 66.8692 16.8387 66.3778 16.34C65.8938 15.8413 65.6518 15.1483 65.6518 14.261C65.6518 13.6743 65.7582 13.1683 65.9708 12.743C66.1908 12.3177 66.4952 11.9877 66.8838 11.753C67.2725 11.511 67.7235 11.39 68.2368 11.39C68.7282 11.39 69.1425 11.4963 69.4798 11.709C69.8172 11.9143 70.0775 12.2113 70.2608 12.6C70.4442 12.9813 70.5358 13.436 70.5358 13.964V14.272H66.1358V13.788H70.1178L69.9308 13.931C69.9308 13.3077 69.7878 12.82 69.5018 12.468C69.2158 12.1087 68.7905 11.929 68.2258 11.929C67.6245 11.929 67.1552 12.138 66.8178 12.556C66.4805 12.9667 66.3118 13.513 66.3118 14.195V14.272C66.3118 15.0053 66.4915 15.5627 66.8508 15.944C67.2175 16.3253 67.7272 16.516 68.3798 16.516C68.7172 16.516 69.0325 16.4647 69.3258 16.362C69.6192 16.2593 69.9015 16.0833 70.1728 15.834L70.4478 16.329C70.2132 16.571 69.9088 16.758 69.5348 16.89C69.1608 17.022 68.7722 17.088 68.3688 17.088Z" fill="white"/>
<path d="M115.354 14.3536C115.549 14.1583 115.549 13.8417 115.354 13.6465L112.172 10.4645C111.976 10.2692 111.66 10.2692 111.465 10.4645C111.269 10.6597 111.269 10.9763 111.465 11.1716L114.293 14L111.465 16.8284C111.269 17.0237 111.269 17.3403 111.465 17.5355C111.66 17.7308 111.976 17.7308 112.172 17.5355L115.354 14.3536ZM92 14.5H115V13.5H92V14.5Z" fill="white"/>
</svg>
