<svg width="360" height="360" viewBox="0 0 360 360" fill="none" xmlns="http://www.w3.org/2000/svg">
<g clip-path="url(#clip0_2_159)">
<ellipse cx="94" cy="144" rx="22" ry="19" fill="#FFC892"/>
<ellipse cx="263" cy="144" rx="22" ry="19" fill="#FFC892"/>
<path fill-rule="evenodd" clip-rule="evenodd" d="M178 43C147 43 95.5 54.2 95.5 125C95.6088 125 95.7165 125 95.823 125C93.9778 136.056 93.4095 147.025 94.6942 156.5C97.8942 180.1 128.361 198 143.194 204C148.028 206 161.894 210 178.694 210C195.494 210 209.361 206 214.194 204C229.028 198 259.494 180.1 262.694 156.5C263.99 146.946 263.392 135.882 261.5 124.742C261.375 54.1727 209.962 43 179 43H178Z" fill="#FFD0B2"/>
<g opacity="0.7">
<ellipse cx="119.5" cy="160.5" rx="12.5" ry="10.5" fill="#FFBAA5"/>
<ellipse cx="239.5" cy="160.5" rx="12.5" ry="10.5" fill="#FFBAA5"/>
</g>
<path fill-rule="evenodd" clip-rule="evenodd" d="M203.984 39.6663C205.284 37.1484 206 34.3908 206 31.5C206 19.6259 193.912 10 179 10C164.088 10 152 19.6259 152 31.5C152 34.3054 152.675 36.9853 153.902 39.4424C113.358 49.8759 95.5 86.5451 95.5 125C94.5 125.333 91.5 129.8 87.5 145C84.2262 157.44 91.67 168.38 97.9019 177.539C101.188 182.368 104.137 186.702 105 190.5C107 199.3 102.833 208.833 100.5 212.5C99.1666 213.167 97.7 214.1 102.5 212.5C108.5 210.5 119.5 204.5 118.5 187C117.96 177.544 114.5 171.592 111.196 165.909C108.386 161.075 105.689 156.435 105 150C103.8 138.8 111.5 118.333 115.5 109.5C137.5 109.5 150 80.8333 153.5 66.5C153.5 92.5 212.5 106 242 109.5C246 118.333 253.7 138.8 252.5 150C251.811 156.435 249.114 161.075 246.304 165.909C243 171.592 239.54 177.544 239 187C238 204.5 249 210.5 255 212.5C259.8 214.1 258.333 213.167 257 212.5C254.667 208.833 250.5 199.3 252.5 190.5C253.363 186.702 256.312 182.368 259.598 177.539C265.83 168.38 273.274 157.44 270 145C266 129.8 263 125.333 262 125C262 86.8154 244.041 50.3916 203.984 39.6663Z" fill="#4E260F"/>
<path d="M161 130C161 117.738 152.164 108 141.5 108C130.836 108 122 117.738 122 130C122 142.262 130.836 152 141.5 152C152.164 152 161 142.262 161 130Z" fill="white" stroke="black" stroke-width="2"/>
<ellipse cx="15" cy="17" rx="15" ry="17" transform="matrix(1 0 0 -1 132 147)" fill="black"/>
<line x1="1" y1="-1" x2="6" y2="-1" transform="matrix(0 1 1 0 142 152)" stroke="black" stroke-width="2" stroke-linecap="round"/>
<line x1="1" y1="-1" x2="6" y2="-1" transform="matrix(0.5 0.866025 0.866025 -0.5 153 147.938)" stroke="black" stroke-width="2" stroke-linecap="round"/>
<line x1="130.866" y1="149.304" x2="128.366" y2="153.634" stroke="black" stroke-width="2" stroke-linecap="round"/>
<path d="M237 130C237 117.738 228.164 108 217.5 108C206.836 108 198 117.738 198 130C198 142.262 206.836 152 217.5 152C228.164 152 237 142.262 237 130Z" fill="white" stroke="black" stroke-width="2"/>
<ellipse cx="15" cy="17" rx="15" ry="17" transform="matrix(1 0 0 -1 208 147)" fill="black"/>
<line x1="1" y1="-1" x2="6" y2="-1" transform="matrix(0 1 1 0 218 152)" stroke="black" stroke-width="2" stroke-linecap="round"/>
<line x1="1" y1="-1" x2="6" y2="-1" transform="matrix(0.5 0.866025 0.866025 -0.5 229 147.938)" stroke="black" stroke-width="2" stroke-linecap="round"/>
<line x1="206.866" y1="149.304" x2="204.366" y2="153.634" stroke="black" stroke-width="2" stroke-linecap="round"/>
<path d="M200 162C200 168.075 191.493 173 181 173C170.507 173 162 168.075 162 162" stroke="#8C501D" stroke-width="3" stroke-linecap="round"/>
<ellipse cx="181" cy="143.5" rx="9" ry="5.5" fill="#FF7E36"/>
<path fill-rule="evenodd" clip-rule="evenodd" d="M155.353 207.521C144.473 209.609 126.11 218.194 108.5 242C93.5708 262.182 83.8327 274.609 76.5453 283.112C75.8737 283.038 75.1913 283 74.5 283C64.2827 283 56 291.283 56 301.5C56 311.717 64.2827 320 74.5 320C84.7173 320 93 311.717 93 301.5C93 298.965 92.49 296.549 91.567 294.348C105.418 280.375 125.52 260.542 137.853 253.5C133.649 267.573 123.181 325.514 137.853 360.5H173.5L179.75 337.5L186.5 360.5H221.647C236.319 325.514 225.851 267.573 221.647 253.5C233.409 260.216 253.274 279.603 267.588 293.989C266.567 296.285 266 298.826 266 301.5C266 311.717 274.283 320 284.5 320C294.717 320 303 311.717 303 301.5C303 291.283 294.717 283 284.5 283C284.035 283 283.574 283.017 283.118 283.051C275.383 274.008 265.073 261.025 251 242C232.741 217.317 213.672 208.997 202.975 207.316C196.493 208.76 188.048 210 178.694 210C169.786 210 161.702 208.875 155.353 207.521Z" fill="#FFD0B2"/>
<path fill-rule="evenodd" clip-rule="evenodd" d="M228.993 304.17C221.388 304.805 194.042 307 179.5 307C166.509 307 141.548 305.248 130.496 304.422C129.688 323.651 131.135 344.482 137.853 360.5H173.5L179.75 337.5L186.5 360.5H221.647C228.394 344.412 229.825 323.469 228.993 304.17Z" fill="#212121"/>
<g style="mix-blend-mode:hard-light" opacity="0.1" filter="url(#filter0_f_2_159)">
<path fill-rule="evenodd" clip-rule="evenodd" d="M210.094 209.12C209.12 214.652 206.646 223.035 205.476 227C205.054 228.429 204.749 230.949 204.395 233.872C203.51 241.173 202.321 250.985 198.25 252.584C192.549 254.822 186.083 256 179.5 256C172.917 256 166.451 254.822 160.75 252.584C155.049 250.346 153.5 237.5 153.5 228C153.5 222.367 151.733 217.428 150.295 213.408C149.756 211.901 149.263 210.523 148.927 209.285C151.272 208.462 153.43 207.89 155.353 207.521C161.702 208.875 169.786 210 178.694 210C188.048 210 196.493 208.76 202.975 207.316C205.054 207.642 207.45 208.22 210.094 209.12Z" fill="#700000"/>
</g>
<g clip-path="url(#clip1_2_159)">
<mask id="mask0_2_159" style="mask-type:alpha" maskUnits="userSpaceOnUse" x="76" y="206" width="207" height="103">
<path fill-rule="evenodd" clip-rule="evenodd" d="M151.823 206.703C151.402 207.258 151 207.993 151 208.5C141 205.5 113.6 228.7 106 241.5C102.03 248.187 97.0115 252.603 92.6242 256.464C86.5136 261.841 81.6268 266.142 82.5 274C80.1666 275.833 75.6999 280 76.4999 282C79.8333 285.833 87.4999 293.7 91.4999 294.5C95.4999 294.5 98.8333 289.833 99.9999 287.5C104.5 289 119.2 277.2 122 272C124.8 266.8 130.833 260.167 133.5 257.5C128.667 268.167 121.1 290.5 129.5 294.5C128.833 297.833 128.2 305.7 129 306.5C143 308.5 171.6 308.5 178 308.5C184.4 308.5 221.5 308 230.5 306.5C231.3 305.7 230.167 297.833 229.5 294.5C237.9 290.5 230.333 268.167 225.5 257.5C228.167 260.167 234.2 266.8 237 272C239.8 277.2 254.5 289 259 287.5C260.167 289.833 263.5 294.5 267.5 294.5C271.5 293.7 279.167 285.833 282.5 282C283.3 280 278.833 275.833 276.5 274C277.373 266.142 272.486 261.841 266.376 256.464C261.988 252.603 256.97 248.187 253 241.5C245.4 228.7 218 205.5 208 208.5C208 207.961 206.865 207.165 205.972 206.601C199.21 208.325 189.566 210 178.694 210C168.038 210 158.562 208.391 151.823 206.703Z" fill="black"/>
</mask>
<g mask="url(#mask0_2_159)">
<rect x="72" y="197" width="213" height="163" fill="#FBCD56"/>
<path d="M178.5 231L166 255.727L178.5 279L191 255.727L178.5 231Z" fill="#FFF5DD" stroke="#FFF5DD" stroke-width="2" stroke-linejoin="round"/>
<path d="M228.5 231L216 255.727L228.5 279L241 255.727L228.5 231Z" fill="#FFF5DD" stroke="#FFF5DD" stroke-width="2" stroke-linejoin="round"/>
<path d="M278.5 231L266 255.727L278.5 279L291 255.727L278.5 231Z" fill="#FFF5DD" stroke="#FFF5DD" stroke-width="2" stroke-linejoin="round"/>
<path d="M128.5 231L116 255.727L128.5 279L141 255.727L128.5 231Z" fill="#FFF5DD" stroke="#FFF5DD" stroke-width="2" stroke-linejoin="round"/>
<path d="M103.5 231L91 255.727L103.5 279L116 255.727L103.5 231Z" fill="#FFF5DD" stroke="#FFF5DD" stroke-width="2" stroke-linejoin="round"/>
<path d="M203.5 231L191 255.727L203.5 279L216 255.727L203.5 231Z" fill="#FFF5DD" stroke="#FFF5DD" stroke-width="2" stroke-linejoin="round"/>
<path d="M253.5 231L241 255.727L253.5 279L266 255.727L253.5 231Z" fill="#FFF5DD" stroke="#FFF5DD" stroke-width="2" stroke-linejoin="round"/>
<path d="M153.5 231L141 255.727L153.5 279L166 255.727L153.5 231Z" fill="#FFF5DD" stroke="#FFF5DD" stroke-width="2" stroke-linejoin="round"/>
<path d="M191.5 231L179 255.727L191.5 279L204 255.727L191.5 231Z" stroke="#709CDD" stroke-width="2" stroke-linejoin="round"/>
<path d="M241.5 231L229 255.727L241.5 279L254 255.727L241.5 231Z" stroke="#709CDD" stroke-width="2" stroke-linejoin="round"/>
<path d="M141.5 231L129 255.727L141.5 279L154 255.727L141.5 231Z" stroke="#709CDD" stroke-width="2" stroke-linejoin="round"/>
<path d="M116.5 231L104 255.727L116.5 279L129 255.727L116.5 231Z" stroke="#709CDD" stroke-width="2" stroke-linejoin="round"/>
<path d="M91.5 231L79 255.727L91.5 279L104 255.727L91.5 231Z" stroke="#709CDD" stroke-width="2" stroke-linejoin="round"/>
<path d="M216.5 231L204 255.727L216.5 279L229 255.727L216.5 231Z" stroke="#709CDD" stroke-width="2" stroke-linejoin="round"/>
<path d="M266.5 231L254 255.727L266.5 279L279 255.727L266.5 231Z" stroke="#709CDD" stroke-width="2" stroke-linejoin="round"/>
<path d="M166.5 231L154 255.727L166.5 279L179 255.727L166.5 231Z" stroke="#709CDD" stroke-width="2" stroke-linejoin="round"/>
<g filter="url(#filter1_d_2_159)">
<path d="M179.5 223C165.9 223 148.5 214 141.5 209.5L149 206.5H210L219.5 209.5C211.833 214 193.1 223 179.5 223Z" fill="#FFC32B"/>
</g>
<g filter="url(#filter2_i_2_159)">
<path d="M179.5 298.5C163.1 298.5 139.333 296.167 129.5 295L126 309.5H233.5L229.5 295C219.667 296.167 195.9 298.5 179.5 298.5Z" fill="#FFC32B"/>
</g>
<g filter="url(#filter3_i_2_159)">
<path d="M73.5 283.5L82 273.5C86.6667 277.667 96.8 286.3 100 287.5L93 299L73.5 283.5Z" fill="#FFC32B"/>
</g>
<g filter="url(#filter4_i_2_159)">
<path d="M285.5 283.5L277 273.5C272.333 277.667 262.2 286.3 259 287.5L266 299L285.5 283.5Z" fill="#FFC32B"/>
</g>
<g filter="url(#filter5_f_2_159)">
<path d="M180 216.5V223M174.5 216.5L173 223M169.5 215.5L167 221M164 214L160.5 219M159 212.5L155.5 216.5M154 210L150 214.5M150 208.5L145 211.5M184 216.5L185.5 223M189 215.5L191.5 221M194.5 214L198 219M199.5 212.5L203.5 217M204.5 210L209 215M208.5 208.5L214.5 212.5" stroke="#EAA800"/>
</g>
<g filter="url(#filter6_f_2_159)">
<path d="M132 295.5V309.5M139 296V309.5M146 297V310M153 297.5V310M160 298V310M167 298V310M174.5 298.5V310M182 298.5V310M190 298.5V309.5M199 298V309.5M206.5 297.5V309.5M214 296.5V309.5M221.5 295.5V309.5M228.5 295L229 309" stroke="#EAA800"/>
</g>
<g filter="url(#filter7_f_2_159)">
<path d="M84.5 275.5L77.5 283.5M88 279L81.5 287M92 282.5L85.5 291M96 285.5L90 294" stroke="#EAA800"/>
</g>
<g filter="url(#filter8_f_2_159)">
<path d="M273.5 276L280.5 284M270 279.5L276.5 287.5M266 283L272.5 291.5M262 286L268 294.5" stroke="#EAA800"/>
</g>
<g filter="url(#filter9_i_2_159)">
<path d="M178.5 216.5C166.9 216.5 154.667 210.833 150 208L151.5 205.5H205.5L209 208C203.833 210.833 190.1 216.5 178.5 216.5Z" fill="#FFF5DD"/>
</g>
</g>
</g>
</g>
<defs>
<filter id="filter0_f_2_159" x="146.927" y="205.316" width="65.1671" height="52.6843" filterUnits="userSpaceOnUse" color-interpolation-filters="sRGB">
<feFlood flood-opacity="0" result="BackgroundImageFix"/>
<feBlend mode="normal" in="SourceGraphic" in2="BackgroundImageFix" result="shape"/>
<feGaussianBlur stdDeviation="1" result="effect1_foregroundBlur_2_159"/>
</filter>
<filter id="filter1_d_2_159" x="139.5" y="205.5" width="82" height="20.5" filterUnits="userSpaceOnUse" color-interpolation-filters="sRGB">
<feFlood flood-opacity="0" result="BackgroundImageFix"/>
<feColorMatrix in="SourceAlpha" type="matrix" values="0 0 0 0 0 0 0 0 0 0 0 0 0 0 0 0 0 0 127 0" result="hardAlpha"/>
<feOffset dy="1"/>
<feGaussianBlur stdDeviation="1"/>
<feColorMatrix type="matrix" values="0 0 0 0 0.958333 0 0 0 0 0.723249 0 0 0 0 0.123785 0 0 0 0.8 0"/>
<feBlend mode="normal" in2="BackgroundImageFix" result="effect1_dropShadow_2_159"/>
<feBlend mode="normal" in="SourceGraphic" in2="effect1_dropShadow_2_159" result="shape"/>
</filter>
<filter id="filter2_i_2_159" x="126" y="295" width="107.5" height="14.5" filterUnits="userSpaceOnUse" color-interpolation-filters="sRGB">
<feFlood flood-opacity="0" result="BackgroundImageFix"/>
<feBlend mode="normal" in="SourceGraphic" in2="BackgroundImageFix" result="shape"/>
<feColorMatrix in="SourceAlpha" type="matrix" values="0 0 0 0 0 0 0 0 0 0 0 0 0 0 0 0 0 0 127 0" result="hardAlpha"/>
<feOffset/>
<feGaussianBlur stdDeviation="1.5"/>
<feComposite in2="hardAlpha" operator="arithmetic" k2="-1" k3="1"/>
<feColorMatrix type="matrix" values="0 0 0 0 0.8375 0 0 0 0 0.631915 0 0 0 0 0.104688 0 0 0 0.8 0"/>
<feBlend mode="normal" in2="shape" result="effect1_innerShadow_2_159"/>
</filter>
<filter id="filter3_i_2_159" x="73.5" y="273.5" width="26.5" height="26.5" filterUnits="userSpaceOnUse" color-interpolation-filters="sRGB">
<feFlood flood-opacity="0" result="BackgroundImageFix"/>
<feBlend mode="normal" in="SourceGraphic" in2="BackgroundImageFix" result="shape"/>
<feColorMatrix in="SourceAlpha" type="matrix" values="0 0 0 0 0 0 0 0 0 0 0 0 0 0 0 0 0 0 127 0" result="hardAlpha"/>
<feOffset dy="1"/>
<feGaussianBlur stdDeviation="1"/>
<feComposite in2="hardAlpha" operator="arithmetic" k2="-1" k3="1"/>
<feColorMatrix type="matrix" values="0 0 0 0 0.958333 0 0 0 0 0.723249 0 0 0 0 0.123785 0 0 0 0.8 0"/>
<feBlend mode="normal" in2="shape" result="effect1_innerShadow_2_159"/>
</filter>
<filter id="filter4_i_2_159" x="259" y="273.5" width="26.5" height="26.5" filterUnits="userSpaceOnUse" color-interpolation-filters="sRGB">
<feFlood flood-opacity="0" result="BackgroundImageFix"/>
<feBlend mode="normal" in="SourceGraphic" in2="BackgroundImageFix" result="shape"/>
<feColorMatrix in="SourceAlpha" type="matrix" values="0 0 0 0 0 0 0 0 0 0 0 0 0 0 0 0 0 0 127 0" result="hardAlpha"/>
<feOffset dy="1"/>
<feGaussianBlur stdDeviation="1"/>
<feComposite in2="hardAlpha" operator="arithmetic" k2="-1" k3="1"/>
<feColorMatrix type="matrix" values="0 0 0 0 0.958333 0 0 0 0 0.723249 0 0 0 0 0.123785 0 0 0 0.8 0"/>
<feBlend mode="normal" in2="shape" result="effect1_innerShadow_2_159"/>
</filter>
<filter id="filter5_f_2_159" x="142.743" y="206.071" width="74.0345" height="19.0411" filterUnits="userSpaceOnUse" color-interpolation-filters="sRGB">
<feFlood flood-opacity="0" result="BackgroundImageFix"/>
<feBlend mode="normal" in="SourceGraphic" in2="BackgroundImageFix" result="shape"/>
<feGaussianBlur stdDeviation="1" result="effect1_foregroundBlur_2_159"/>
</filter>
<filter id="filter6_f_2_159" x="129.5" y="292.982" width="102" height="19.0178" filterUnits="userSpaceOnUse" color-interpolation-filters="sRGB">
<feFlood flood-opacity="0" result="BackgroundImageFix"/>
<feBlend mode="normal" in="SourceGraphic" in2="BackgroundImageFix" result="shape"/>
<feGaussianBlur stdDeviation="1" result="effect1_foregroundBlur_2_159"/>
</filter>
<filter id="filter7_f_2_159" x="75.1237" y="273.171" width="23.2848" height="23.1176" filterUnits="userSpaceOnUse" color-interpolation-filters="sRGB">
<feFlood flood-opacity="0" result="BackgroundImageFix"/>
<feBlend mode="normal" in="SourceGraphic" in2="BackgroundImageFix" result="shape"/>
<feGaussianBlur stdDeviation="1" result="effect1_foregroundBlur_2_159"/>
</filter>
<filter id="filter8_f_2_159" x="259.592" y="273.671" width="23.2848" height="23.1176" filterUnits="userSpaceOnUse" color-interpolation-filters="sRGB">
<feFlood flood-opacity="0" result="BackgroundImageFix"/>
<feBlend mode="normal" in="SourceGraphic" in2="BackgroundImageFix" result="shape"/>
<feGaussianBlur stdDeviation="1" result="effect1_foregroundBlur_2_159"/>
</filter>
<filter id="filter9_i_2_159" x="150" y="204.5" width="59" height="12" filterUnits="userSpaceOnUse" color-interpolation-filters="sRGB">
<feFlood flood-opacity="0" result="BackgroundImageFix"/>
<feBlend mode="normal" in="SourceGraphic" in2="BackgroundImageFix" result="shape"/>
<feColorMatrix in="SourceAlpha" type="matrix" values="0 0 0 0 0 0 0 0 0 0 0 0 0 0 0 0 0 0 127 0" result="hardAlpha"/>
<feOffset dy="-1"/>
<feGaussianBlur stdDeviation="1"/>
<feComposite in2="hardAlpha" operator="arithmetic" k2="-1" k3="1"/>
<feColorMatrix type="matrix" values="0 0 0 0 0.941667 0 0 0 0 0.73274 0 0 0 0 0.192257 0 0 0 0.4 0"/>
<feBlend mode="normal" in2="shape" result="effect1_innerShadow_2_159"/>
</filter>
<clipPath id="clip0_2_159">
<rect width="360" height="360" rx="10" fill="white"/>
</clipPath>
<clipPath id="clip1_2_159">
<rect width="213" height="163" fill="white" transform="translate(72 197)"/>
</clipPath>
</defs>
</svg>
