<svg width="122" height="37" viewBox="0 0 122 37" fill="none" xmlns="http://www.w3.org/2000/svg">
<rect width="122" height="37" rx="6" fill="#034662"/>
<path d="M108.354 18.3536C108.549 18.1583 108.549 17.8417 108.354 17.6465L105.172 14.4645C104.976 14.2692 104.66 14.2692 104.465 14.4645C104.269 14.6597 104.269 14.9763 104.465 15.1716L107.293 18L104.465 20.8284C104.269 21.0237 104.269 21.3403 104.465 21.5355C104.66 21.7308 104.976 21.7308 105.172 21.5355L108.354 18.3536ZM85 18.5H108V17.5H85V18.5Z" fill="white"/>
<path d="M10.4791 24V14.13H14.5111C15.5471 14.13 16.3497 14.3773 16.9191 14.872C17.4884 15.3573 17.7731 16.0387 17.7731 16.916C17.7731 17.4947 17.6424 17.9893 17.3811 18.4C17.1291 18.8013 16.7697 19.1093 16.3031 19.324C15.8457 19.5387 15.3091 19.646 14.6931 19.646L14.9451 19.464H15.2251C15.6077 19.464 15.9484 19.5573 16.2471 19.744C16.5551 19.9307 16.7977 20.2433 16.9751 20.682L18.3751 24H17.1011L15.7571 20.738C15.5984 20.318 15.3604 20.0473 15.0431 19.926C14.7257 19.7953 14.3291 19.73 13.8531 19.73H11.6411V24H10.4791ZM11.6411 18.82H14.3431C15.0897 18.82 15.6544 18.6613 16.0371 18.344C16.4291 18.0173 16.6251 17.5507 16.6251 16.944C16.6251 16.3373 16.4291 15.8753 16.0371 15.558C15.6544 15.2407 15.0897 15.082 14.3431 15.082H11.6411V18.82ZM23.018 24.126C21.9167 24.126 21.0487 23.8087 20.414 23.174C19.7794 22.53 19.462 21.6387 19.462 20.5C19.462 19.7627 19.602 19.1233 19.882 18.582C20.162 18.0313 20.554 17.6067 21.058 17.308C21.562 17 22.1407 16.846 22.794 16.846C23.438 16.846 23.9794 16.9813 24.418 17.252C24.8567 17.5227 25.1927 17.91 25.426 18.414C25.6594 18.9087 25.776 19.4967 25.776 20.178V20.598H20.33V19.884H25.034L24.796 20.066C24.796 19.3193 24.628 18.736 24.292 18.316C23.956 17.896 23.4567 17.686 22.794 17.686C22.094 17.686 21.548 17.9333 21.156 18.428C20.764 18.9133 20.568 19.5713 20.568 20.402V20.528C20.568 21.4053 20.7827 22.0727 21.212 22.53C21.6507 22.978 22.262 23.202 23.046 23.202C23.466 23.202 23.858 23.1413 24.222 23.02C24.5954 22.8893 24.95 22.6793 25.286 22.39L25.678 23.188C25.37 23.4867 24.978 23.72 24.502 23.888C24.0354 24.0467 23.5407 24.126 23.018 24.126ZM30.1853 24.126C29.5599 24.126 29.0139 23.9813 28.5473 23.692C28.0806 23.3933 27.7166 22.9733 27.4553 22.432C27.2033 21.8907 27.0773 21.242 27.0773 20.486C27.0773 19.7207 27.2033 19.0673 27.4553 18.526C27.7166 17.9847 28.0806 17.5693 28.5473 17.28C29.0139 16.9907 29.5599 16.846 30.1853 16.846C30.8199 16.846 31.3659 17.0093 31.8233 17.336C32.2899 17.6533 32.5979 18.0873 32.7473 18.638H32.5793L32.7333 16.972H33.8253C33.7973 17.2427 33.7693 17.518 33.7413 17.798C33.7226 18.0687 33.7133 18.3347 33.7133 18.596V24H32.5793V22.348H32.7333C32.5839 22.8987 32.2759 23.3327 31.8093 23.65C31.3426 23.9673 30.8013 24.126 30.1853 24.126ZM30.4093 23.202C31.0813 23.202 31.6133 22.9733 32.0053 22.516C32.3973 22.0493 32.5933 21.3727 32.5933 20.486C32.5933 19.59 32.3973 18.9133 32.0053 18.456C31.6133 17.9893 31.0813 17.756 30.4093 17.756C29.7466 17.756 29.2146 17.9893 28.8133 18.456C28.4213 18.9133 28.2253 19.59 28.2253 20.486C28.2253 21.3727 28.4213 22.0493 28.8133 22.516C29.2146 22.9733 29.7466 23.202 30.4093 23.202ZM38.5658 24.126C37.9498 24.126 37.4085 23.9813 36.9418 23.692C36.4751 23.3933 36.1111 22.9733 35.8498 22.432C35.5978 21.8907 35.4718 21.242 35.4718 20.486C35.4718 19.7207 35.5978 19.0673 35.8498 18.526C36.1111 17.9847 36.4751 17.5693 36.9418 17.28C37.4085 16.9907 37.9498 16.846 38.5658 16.846C39.2005 16.846 39.7465 17.0047 40.2038 17.322C40.6705 17.6393 40.9831 18.0687 41.1418 18.61H40.9738V13.696H42.1078V24H40.9878V22.32H41.1418C40.9925 22.88 40.6845 23.3233 40.2178 23.65C39.7511 23.9673 39.2005 24.126 38.5658 24.126ZM38.8038 23.202C39.4665 23.202 39.9985 22.9733 40.3998 22.516C40.8011 22.0493 41.0018 21.3727 41.0018 20.486C41.0018 19.59 40.8011 18.9133 40.3998 18.456C39.9985 17.9893 39.4665 17.756 38.8038 17.756C38.1411 17.756 37.6091 17.9893 37.2078 18.456C36.8158 18.9133 36.6198 19.59 36.6198 20.486C36.6198 21.3727 36.8158 22.0493 37.2078 22.516C37.6091 22.9733 38.1411 23.202 38.8038 23.202ZM47.9507 24V18.596C47.9507 18.3347 47.9367 18.0687 47.9087 17.798C47.8901 17.518 47.8667 17.2427 47.8387 16.972H48.9307L49.0707 18.512H48.9027C49.0894 17.98 49.3834 17.5693 49.7847 17.28C50.1954 16.9907 50.6901 16.846 51.2687 16.846C51.8567 16.846 52.3327 16.986 52.6967 17.266C53.0701 17.546 53.3221 17.98 53.4527 18.568H53.2427C53.4201 18.036 53.7327 17.616 54.1807 17.308C54.6287 17 55.1514 16.846 55.7487 16.846C56.5234 16.846 57.1067 17.07 57.4987 17.518C57.8907 17.9567 58.0867 18.652 58.0867 19.604V24H56.9527V19.674C56.9527 19.0113 56.8361 18.5307 56.6027 18.232C56.3694 17.924 55.9961 17.77 55.4827 17.77C54.8947 17.77 54.4281 17.9753 54.0827 18.386C53.7467 18.7873 53.5787 19.3287 53.5787 20.01V24H52.4447V19.674C52.4447 19.0113 52.3281 18.5307 52.0947 18.232C51.8614 17.924 51.4881 17.77 50.9747 17.77C50.3867 17.77 49.9247 17.9753 49.5887 18.386C49.2527 18.7873 49.0847 19.3287 49.0847 20.01V24H47.9507ZM63.1257 24.126C62.4537 24.126 61.8657 23.9813 61.3617 23.692C60.8671 23.3933 60.4844 22.9733 60.2137 22.432C59.9431 21.8813 59.8077 21.2327 59.8077 20.486C59.8077 19.73 59.9431 19.0813 60.2137 18.54C60.4844 17.9987 60.8671 17.5833 61.3617 17.294C61.8657 16.9953 62.4537 16.846 63.1257 16.846C63.8071 16.846 64.3951 16.9953 64.8897 17.294C65.3937 17.5833 65.7811 17.9987 66.0517 18.54C66.3317 19.0813 66.4717 19.73 66.4717 20.486C66.4717 21.2327 66.3317 21.8813 66.0517 22.432C65.7811 22.9733 65.3937 23.3933 64.8897 23.692C64.3951 23.9813 63.8071 24.126 63.1257 24.126ZM63.1257 23.202C63.7977 23.202 64.3297 22.9733 64.7217 22.516C65.1137 22.0493 65.3097 21.3727 65.3097 20.486C65.3097 19.59 65.1091 18.9133 64.7077 18.456C64.3157 17.9893 63.7884 17.756 63.1257 17.756C62.4631 17.756 61.9357 17.9893 61.5437 18.456C61.1517 18.9133 60.9557 19.59 60.9557 20.486C60.9557 21.3727 61.1517 22.0493 61.5437 22.516C61.9357 22.9733 62.4631 23.202 63.1257 23.202ZM68.2118 24V18.666C68.2118 18.386 68.2025 18.1013 68.1838 17.812C68.1745 17.5227 68.1558 17.2427 68.1278 16.972H69.2198L69.3598 18.68L69.1638 18.694C69.2571 18.274 69.4205 17.9287 69.6538 17.658C69.8871 17.3873 70.1625 17.1867 70.4798 17.056C70.7971 16.916 71.1285 16.846 71.4738 16.846C71.6138 16.846 71.7351 16.8507 71.8378 16.86C71.9498 16.8693 72.0525 16.8927 72.1458 16.93L72.1318 17.938C71.9918 17.8913 71.8611 17.8633 71.7398 17.854C71.6278 17.8353 71.4971 17.826 71.3478 17.826C70.9371 17.826 70.5778 17.924 70.2698 18.12C69.9711 18.316 69.7425 18.568 69.5838 18.876C69.4345 19.184 69.3598 19.5107 69.3598 19.856V24H68.2118ZM76.3657 24.126C75.2644 24.126 74.3964 23.8087 73.7617 23.174C73.127 22.53 72.8097 21.6387 72.8097 20.5C72.8097 19.7627 72.9497 19.1233 73.2297 18.582C73.5097 18.0313 73.9017 17.6067 74.4057 17.308C74.9097 17 75.4884 16.846 76.1417 16.846C76.7857 16.846 77.327 16.9813 77.7657 17.252C78.2044 17.5227 78.5404 17.91 78.7737 18.414C79.007 18.9087 79.1237 19.4967 79.1237 20.178V20.598H73.6777V19.884H78.3817L78.1437 20.066C78.1437 19.3193 77.9757 18.736 77.6397 18.316C77.3037 17.896 76.8044 17.686 76.1417 17.686C75.4417 17.686 74.8957 17.9333 74.5037 18.428C74.1117 18.9133 73.9157 19.5713 73.9157 20.402V20.528C73.9157 21.4053 74.1304 22.0727 74.5597 22.53C74.9984 22.978 75.6097 23.202 76.3937 23.202C76.8137 23.202 77.2057 23.1413 77.5697 23.02C77.943 22.8893 78.2977 22.6793 78.6337 22.39L79.0257 23.188C78.7177 23.4867 78.3257 23.72 77.8497 23.888C77.383 24.0467 76.8884 24.126 76.3657 24.126Z" fill="white"/>
</svg>
