<svg width="133" height="27" viewBox="0 0 133 27" fill="none" xmlns="http://www.w3.org/2000/svg">
<rect x="0.5" y="0.5" width="132" height="26" stroke="white"/>
<path d="M22.4882 17.088C21.8649 17.088 21.3149 17.0073 20.8382 16.846C20.3615 16.6847 19.9362 16.45 19.5622 16.142L19.8482 15.581C20.1122 15.7863 20.3689 15.955 20.6182 16.087C20.8749 16.219 21.1535 16.318 21.4542 16.384C21.7549 16.4427 22.0959 16.472 22.4772 16.472C23.1592 16.472 23.6725 16.34 24.0172 16.076C24.3619 15.8047 24.5342 15.449 24.5342 15.009C24.5342 14.6277 24.4132 14.338 24.1712 14.14C23.9365 13.9347 23.5222 13.7733 22.9282 13.656L21.8062 13.425C21.0949 13.2783 20.5632 13.0437 20.2112 12.721C19.8665 12.3983 19.6942 11.9583 19.6942 11.401C19.6942 10.9463 19.8115 10.5503 20.0462 10.213C20.2809 9.87567 20.6072 9.61533 21.0252 9.432C21.4432 9.24867 21.9272 9.157 22.4772 9.157C23.0272 9.157 23.5259 9.24133 23.9732 9.41C24.4279 9.57133 24.8165 9.81333 25.1392 10.136L24.8642 10.686C24.5195 10.3633 24.1565 10.1323 23.7752 9.993C23.3939 9.84633 22.9612 9.773 22.4772 9.773C21.8392 9.773 21.3332 9.91967 20.9592 10.213C20.5852 10.499 20.3982 10.8877 20.3982 11.379C20.3982 11.775 20.5155 12.083 20.7502 12.303C20.9922 12.523 21.3809 12.688 21.9162 12.798L23.0492 13.029C23.8045 13.183 24.3582 13.4103 24.7102 13.711C25.0622 14.0043 25.2382 14.426 25.2382 14.976C25.2382 15.394 25.1245 15.7643 24.8972 16.087C24.6772 16.4023 24.3619 16.648 23.9512 16.824C23.5405 17 23.0529 17.088 22.4882 17.088ZM29.0363 17.088C28.2003 17.088 27.5366 16.8387 27.0453 16.34C26.5613 15.8413 26.3193 15.1483 26.3193 14.261C26.3193 13.6743 26.4256 13.1683 26.6383 12.743C26.8583 12.3177 27.1626 11.9877 27.5513 11.753C27.94 11.511 28.391 11.39 28.9043 11.39C29.3956 11.39 29.81 11.4963 30.1473 11.709C30.4846 11.9143 30.745 12.2113 30.9283 12.6C31.1116 12.9813 31.2033 13.436 31.2033 13.964V14.272H26.8033V13.788H30.7853L30.5983 13.931C30.5983 13.3077 30.4553 12.82 30.1693 12.468C29.8833 12.1087 29.458 11.929 28.8933 11.929C28.292 11.929 27.8226 12.138 27.4853 12.556C27.148 12.9667 26.9793 13.513 26.9793 14.195V14.272C26.9793 15.0053 27.159 15.5627 27.5183 15.944C27.885 16.3253 28.3946 16.516 29.0473 16.516C29.3846 16.516 29.7 16.4647 29.9933 16.362C30.2866 16.2593 30.569 16.0833 30.8403 15.834L31.1153 16.329C30.8806 16.571 30.5763 16.758 30.2023 16.89C29.8283 17.022 29.4396 17.088 29.0363 17.088ZM35.009 17.088C34.173 17.088 33.5093 16.8387 33.018 16.34C32.534 15.8413 32.292 15.1483 32.292 14.261C32.292 13.6743 32.3983 13.1683 32.611 12.743C32.831 12.3177 33.1353 11.9877 33.524 11.753C33.9126 11.511 34.3636 11.39 34.877 11.39C35.3683 11.39 35.7826 11.4963 36.12 11.709C36.4573 11.9143 36.7176 12.2113 36.901 12.6C37.0843 12.9813 37.176 13.436 37.176 13.964V14.272H32.776V13.788H36.758L36.571 13.931C36.571 13.3077 36.428 12.82 36.142 12.468C35.856 12.1087 35.4306 11.929 34.866 11.929C34.2646 11.929 33.7953 12.138 33.458 12.556C33.1206 12.9667 32.952 13.513 32.952 14.195V14.272C32.952 15.0053 33.1316 15.5627 33.491 15.944C33.8576 16.3253 34.3673 16.516 35.02 16.516C35.3573 16.516 35.6726 16.4647 35.966 16.362C36.2593 16.2593 36.5416 16.0833 36.813 15.834L37.088 16.329C36.8533 16.571 36.549 16.758 36.175 16.89C35.801 17.022 35.4123 17.088 35.009 17.088ZM41.4203 17V12.721C41.4203 12.523 41.413 12.3213 41.3983 12.116C41.3837 11.9107 41.3617 11.7017 41.3323 11.489H41.9923L42.0913 12.754H41.9593C42.0987 12.3213 42.3297 11.9877 42.6523 11.753C42.975 11.511 43.3673 11.39 43.8293 11.39C44.2987 11.39 44.68 11.5037 44.9733 11.731C45.2667 11.9583 45.461 12.3103 45.5563 12.787H45.3913C45.5233 12.3617 45.7653 12.0243 46.1173 11.775C46.4693 11.5183 46.8837 11.39 47.3603 11.39C47.9617 11.39 48.4163 11.5623 48.7243 11.907C49.0323 12.2517 49.1863 12.7907 49.1863 13.524V17H48.5153V13.568C48.5153 13.0107 48.4163 12.6073 48.2183 12.358C48.0203 12.1013 47.6977 11.973 47.2503 11.973C46.7517 11.973 46.3557 12.1417 46.0623 12.479C45.7763 12.8163 45.6333 13.271 45.6333 13.843V17H44.9623V13.568C44.9623 13.0107 44.8633 12.6073 44.6653 12.358C44.4673 12.1013 44.1483 11.973 43.7083 11.973C43.2097 11.973 42.8137 12.1417 42.5203 12.479C42.2343 12.8163 42.0913 13.271 42.0913 13.843V17H41.4203ZM53.1589 17.088C52.6382 17.088 52.1872 16.9743 51.8059 16.747C51.4319 16.5197 51.1422 16.1933 50.9369 15.768C50.7315 15.3427 50.6289 14.833 50.6289 14.239C50.6289 13.6523 50.7315 13.1463 50.9369 12.721C51.1422 12.2957 51.4319 11.9693 51.8059 11.742C52.1872 11.5073 52.6382 11.39 53.1589 11.39C53.6722 11.39 54.1159 11.5073 54.4899 11.742C54.8712 11.9693 55.1645 12.2957 55.3699 12.721C55.5825 13.1463 55.6889 13.6523 55.6889 14.239C55.6889 14.833 55.5825 15.3427 55.3699 15.768C55.1645 16.1933 54.8712 16.5197 54.4899 16.747C54.1159 16.9743 53.6722 17.088 53.1589 17.088ZM53.1589 16.516C53.7162 16.516 54.1635 16.3217 54.5009 15.933C54.8382 15.5443 55.0069 14.9797 55.0069 14.239C55.0069 13.4983 54.8382 12.9337 54.5009 12.545C54.1635 12.1563 53.7162 11.962 53.1589 11.962C52.5942 11.962 52.1432 12.1563 51.8059 12.545C51.4759 12.9337 51.3109 13.4983 51.3109 14.239C51.3109 14.9797 51.4759 15.5443 51.8059 15.933C52.1432 16.3217 52.5942 16.516 53.1589 16.516ZM57.1466 17V12.776C57.1466 12.5633 57.1393 12.3507 57.1246 12.138C57.1173 11.918 57.099 11.7017 57.0696 11.489H57.7296L57.8176 12.754L57.6856 12.765C57.759 12.457 57.891 12.204 58.0816 12.006C58.2723 11.8007 58.4923 11.6467 58.7416 11.544C58.991 11.4413 59.2476 11.39 59.5116 11.39C59.607 11.39 59.695 11.3973 59.7756 11.412C59.8636 11.4193 59.9443 11.434 60.0176 11.456L59.9956 12.061C59.9076 12.0317 59.8196 12.0133 59.7316 12.006C59.6436 11.9987 59.5483 11.995 59.4456 11.995C59.1156 11.995 58.826 12.0757 58.5766 12.237C58.3346 12.3983 58.1476 12.6037 58.0156 12.853C57.8836 13.1023 57.8176 13.3553 57.8176 13.612V17H57.1466ZM63.2931 17.088C62.4571 17.088 61.7935 16.8387 61.3021 16.34C60.8181 15.8413 60.5761 15.1483 60.5761 14.261C60.5761 13.6743 60.6825 13.1683 60.8951 12.743C61.1151 12.3177 61.4195 11.9877 61.8081 11.753C62.1968 11.511 62.6478 11.39 63.1611 11.39C63.6525 11.39 64.0668 11.4963 64.4041 11.709C64.7415 11.9143 65.0018 12.2113 65.1851 12.6C65.3685 12.9813 65.4601 13.436 65.4601 13.964V14.272H61.0601V13.788H65.0421L64.8551 13.931C64.8551 13.3077 64.7121 12.82 64.4261 12.468C64.1401 12.1087 63.7148 11.929 63.1501 11.929C62.5488 11.929 62.0795 12.138 61.7421 12.556C61.4048 12.9667 61.2361 13.513 61.2361 14.195V14.272C61.2361 15.0053 61.4158 15.5627 61.7751 15.944C62.1418 16.3253 62.6515 16.516 63.3041 16.516C63.6415 16.516 63.9568 16.4647 64.2501 16.362C64.5435 16.2593 64.8258 16.0833 65.0971 15.834L65.3721 16.329C65.1375 16.571 64.8331 16.758 64.4591 16.89C64.0851 17.022 63.6965 17.088 63.2931 17.088Z" fill="white"/>
<path d="M115.354 14.3536C115.549 14.1583 115.549 13.8417 115.354 13.6465L112.172 10.4645C111.976 10.2692 111.66 10.2692 111.465 10.4645C111.269 10.6597 111.269 10.9763 111.465 11.1716L114.293 14L111.465 16.8284C111.269 17.0237 111.269 17.3403 111.465 17.5355C111.66 17.7308 111.976 17.7308 112.172 17.5355L115.354 14.3536ZM92 14.5H115V13.5H92V14.5Z" fill="white"/>
</svg>
