<svg width="133" height="27" viewBox="0 0 133 27" fill="none" xmlns="http://www.w3.org/2000/svg">
<rect x="0.5" y="0.5" width="132" height="26" stroke="white"/>
<path d="M24.4584 17L21.1034 9.245H21.8404L24.9534 16.516H24.6564L27.7914 9.245H28.5064L25.1294 17H24.4584ZM31.0461 17.088C30.5254 17.088 30.0744 16.9743 29.6931 16.747C29.3191 16.5197 29.0294 16.1933 28.8241 15.768C28.6187 15.3427 28.5161 14.833 28.5161 14.239C28.5161 13.6523 28.6187 13.1463 28.8241 12.721C29.0294 12.2957 29.3191 11.9693 29.6931 11.742C30.0744 11.5073 30.5254 11.39 31.0461 11.39C31.5594 11.39 32.0031 11.5073 32.3771 11.742C32.7584 11.9693 33.0517 12.2957 33.2571 12.721C33.4697 13.1463 33.5761 13.6523 33.5761 14.239C33.5761 14.833 33.4697 15.3427 33.2571 15.768C33.0517 16.1933 32.7584 16.5197 32.3771 16.747C32.0031 16.9743 31.5594 17.088 31.0461 17.088ZM31.0461 16.516C31.6034 16.516 32.0507 16.3217 32.3881 15.933C32.7254 15.5443 32.8941 14.9797 32.8941 14.239C32.8941 13.4983 32.7254 12.9337 32.3881 12.545C32.0507 12.1563 31.6034 11.962 31.0461 11.962C30.4814 11.962 30.0304 12.1563 29.6931 12.545C29.3631 12.9337 29.1981 13.4983 29.1981 14.239C29.1981 14.9797 29.3631 15.5443 29.6931 15.933C30.0304 16.3217 30.4814 16.516 31.0461 16.516ZM35.0448 17V11.489H35.7158V17H35.0448ZM34.9348 10.136V9.3H35.8368V10.136H34.9348ZM37.5368 17V12.776C37.5368 12.5633 37.5294 12.3507 37.5148 12.138C37.5074 11.918 37.4891 11.7017 37.4598 11.489H38.1198L38.2078 12.754L38.0758 12.765C38.1491 12.457 38.2811 12.204 38.4718 12.006C38.6624 11.8007 38.8824 11.6467 39.1318 11.544C39.3811 11.4413 39.6378 11.39 39.9018 11.39C39.9971 11.39 40.0851 11.3973 40.1658 11.412C40.2538 11.4193 40.3344 11.434 40.4078 11.456L40.3858 12.061C40.2978 12.0317 40.2098 12.0133 40.1218 12.006C40.0338 11.9987 39.9384 11.995 39.8358 11.995C39.5058 11.995 39.2161 12.0757 38.9668 12.237C38.7248 12.3983 38.5378 12.6037 38.4058 12.853C38.2738 13.1023 38.2078 13.3553 38.2078 13.612V17H37.5368ZM44.1864 19.376V12.721C44.1864 12.523 44.1791 12.3213 44.1644 12.116C44.1498 11.9107 44.1278 11.7017 44.0984 11.489H44.7584L44.8684 12.864H44.7364C44.8611 12.4093 45.1031 12.05 45.4624 11.786C45.8218 11.522 46.2581 11.39 46.7714 11.39C47.2701 11.39 47.6991 11.5073 48.0584 11.742C48.4251 11.9693 48.7111 12.2957 48.9164 12.721C49.1218 13.139 49.2244 13.645 49.2244 14.239C49.2244 14.833 49.1218 15.3427 48.9164 15.768C48.7184 16.1933 48.4361 16.5197 48.0694 16.747C47.7028 16.9743 47.2701 17.088 46.7714 17.088C46.2654 17.088 45.8291 16.9597 45.4624 16.703C45.1031 16.439 44.8611 16.0797 44.7364 15.625H44.8574V19.376H44.1864ZM46.6834 16.516C47.2481 16.516 47.6991 16.3217 48.0364 15.933C48.3738 15.5443 48.5424 14.9797 48.5424 14.239C48.5424 13.4983 48.3738 12.9337 48.0364 12.545C47.6991 12.1563 47.2481 11.962 46.6834 11.962C46.1261 11.962 45.6788 12.1563 45.3414 12.545C45.0114 12.9337 44.8464 13.4983 44.8464 14.239C44.8464 14.9797 45.0114 15.5443 45.3414 15.933C45.6788 16.3217 46.1261 16.516 46.6834 16.516ZM50.6855 17V8.904H51.3565V17H50.6855ZM55.1244 17.088C54.4791 17.088 53.9877 16.9157 53.6504 16.571C53.3204 16.219 53.1554 15.68 53.1554 14.954V11.489H53.8264V14.91C53.8264 15.4673 53.9401 15.8743 54.1674 16.131C54.3947 16.3877 54.7431 16.516 55.2124 16.516C55.7331 16.516 56.1511 16.3473 56.4664 16.01C56.7891 15.6653 56.9504 15.2107 56.9504 14.646V11.489H57.6214V17H56.9614V15.702H57.1044C56.9504 16.1493 56.6974 16.494 56.3454 16.736C56.0007 16.9707 55.5937 17.088 55.1244 17.088ZM61.2331 17.088C60.8078 17.088 60.4081 17.0257 60.0341 16.901C59.6674 16.7763 59.3631 16.604 59.1211 16.384L59.3851 15.889C59.6564 16.109 59.9498 16.274 60.2651 16.384C60.5804 16.4867 60.9104 16.538 61.2551 16.538C61.7244 16.538 62.0801 16.45 62.3221 16.274C62.5641 16.098 62.6851 15.8597 62.6851 15.559C62.6851 15.3243 62.6081 15.1337 62.4541 14.987C62.3001 14.8403 62.0434 14.7303 61.6841 14.657L60.6941 14.448C60.2248 14.338 59.8728 14.162 59.6381 13.92C59.4108 13.678 59.2971 13.3737 59.2971 13.007C59.2971 12.6917 59.3778 12.413 59.5391 12.171C59.7078 11.929 59.9461 11.7383 60.2541 11.599C60.5621 11.4597 60.9251 11.39 61.3431 11.39C61.7391 11.39 62.1021 11.456 62.4321 11.588C62.7694 11.7127 63.0444 11.8923 63.2571 12.127L62.9711 12.611C62.7511 12.391 62.5018 12.226 62.2231 12.116C61.9518 12.006 61.6621 11.951 61.3541 11.951C60.8994 11.951 60.5548 12.0463 60.3201 12.237C60.0854 12.4203 59.9681 12.666 59.9681 12.974C59.9681 13.2087 60.0414 13.403 60.1881 13.557C60.3348 13.7037 60.5658 13.8137 60.8811 13.887L61.8711 14.107C62.3698 14.217 62.7401 14.3857 62.9821 14.613C63.2241 14.8403 63.3451 15.141 63.3451 15.515C63.3451 15.8377 63.2571 16.12 63.0811 16.362C62.9051 16.5967 62.6594 16.7763 62.3441 16.901C62.0288 17.0257 61.6584 17.088 61.2331 17.088Z" fill="white"/>
<path d="M115.354 14.3536C115.549 14.1583 115.549 13.8417 115.354 13.6465L112.172 10.4645C111.976 10.2692 111.66 10.2692 111.465 10.4645C111.269 10.6597 111.269 10.9763 111.465 11.1716L114.293 14L111.465 16.8284C111.269 17.0237 111.269 17.3403 111.465 17.5355C111.66 17.7308 111.976 17.7308 112.172 17.5355L115.354 14.3536ZM92 14.5H115V13.5H92V14.5Z" fill="white"/>
</svg>
